<?xml version="1.0" standalone="no"?>
<!DOCTYPE svg PUBLIC "-//W3C//DTD SVG 20010904//EN"
 "http://www.w3.org/TR/2001/REC-SVG-20010904/DTD/svg10.dtd">
<svg version="1.0" xmlns="http://www.w3.org/2000/svg"
 width="500.000000pt" height="247.000000pt" viewBox="0 0 500.000000 247.000000"
 preserveAspectRatio="xMidYMid meet">
<metadata>
Created by potrace 1.16, written by Peter Selinger 2001-2019
</metadata>
<g transform="translate(0.000000,247.000000) scale(0.100000,-0.100000)"
fill="#000000" stroke="none">
<path d="M10 1881 l0 -590 25 -78 c31 -98 69 -164 136 -237 244 -268 697 -346
1126 -195 230 81 408 207 556 393 44 56 77 92 72 81 -4 -11 -12 -33 -18 -50
-43 -117 -225 -319 -379 -419 -230 -150 -462 -213 -742 -203 -274 10 -463 88
-616 254 -71 77 -114 151 -141 246 -17 61 -18 56 -18 -455 l-1 -518 2435 0
2435 0 0 1180 0 1180 -2435 0 -2435 0 0 -589z m1310 388 c-12 -41 -24 -117
-27 -170 -7 -125 8 -161 82 -195 65 -30 190 -48 280 -39 94 8 309 43 340 55
54 21 18 -2 -137 -86 -337 -181 -560 -336 -744 -519 -95 -93 -202 -226 -217
-268 -2 -7 -7 -9 -11 -6 -8 8 19 212 50 370 70 364 193 676 346 884 28 38 53
65 55 59 2 -6 -6 -45 -17 -85z m-482 -2 c-276 -150 -447 -378 -473 -627 -8
-80 12 -184 52 -267 39 -83 158 -199 248 -244 86 -42 79 -38 73 -44 -3 -4 -34
4 -69 15 -188 63 -313 177 -370 336 -29 79 -31 233 -5 319 65 219 263 421 516
526 99 42 114 34 28 -14z m789 -81 c27 -29 33 -44 33 -79 0 -86 -62 -150 -145
-150 -53 0 -92 24 -111 68 -19 45 -17 71 6 123 39 87 154 107 217 38z"/>
</g>
</svg>
