<svg id="Layer_1" data-name="Layer 1" xmlns="http://www.w3.org/2000/svg" viewBox="0 0 64 64"><defs><style>.cls-1{fill:#ebf0f7;}.cls-2{fill:#744ac6;}.cls-3{fill:#5630b2;}.cls-4{fill:#4121a3;}.cls-15,.cls-19,.cls-20,.cls-34,.cls-5{fill:none;}.cls-5{stroke:#041256;stroke-linejoin:round;stroke-width:2px;}.cls-15,.cls-34,.cls-5{stroke-linecap:round;}.cls-6{fill:#d9e7f4;}.cls-7{fill:#cee3f2;}.cls-8{fill:#bdd9ef;}.cls-9{fill:#b0d4ed;}.cls-10{fill:#e8f2f9;}.cls-11{fill:#fdfeff;}.cls-12{fill:#a1c9e5;}.cls-13{fill:#88bad8;}.cls-14{fill:#8455ce;}.cls-15{stroke:#a1c9e5;}.cls-15,.cls-19,.cls-20,.cls-34{stroke-miterlimit:10;}.cls-16{fill:#e1d7f7;}.cls-17{fill:#d2c2f2;}.cls-18{fill:#d6cbf4;}.cls-19{stroke:#e8f2f9;}.cls-20{stroke:#bdd9ef;}.cls-21{fill:#bcacef;}.cls-22{fill:#b09ce2;}.cls-23{fill:#f28838;}.cls-24{fill:#ef7f33;}.cls-25{fill:#f7a757;}.cls-26{fill:#e5772e;}.cls-27{fill:#cc662e;}.cls-28{fill:#f7b772;}.cls-29{fill:#fcca97;}.cls-30{fill:#ffe1c5;}.cls-31{fill:#f7efe8;}.cls-32{fill:#fff;}.cls-33{fill:#d0c5ef;}.cls-34{stroke:#f7a757;}</style></defs><title>folder, file, personal, man, profile</title><path class="cls-1" d="M2,61V49.32A1.22,1.22,0,0,1,3.23,48.1H4.95V46.92H6.85a1.22,1.22,0,0,1,1.22,1.22h0a1.22,1.22,0,0,0,1.22,1.22h1.21a1.22,1.22,0,0,1,.86.36l5.42,5.42a1.22,1.22,0,0,0,.86.36h.08a1.22,1.22,0,0,0,1.22-1.22v-6a1.22,1.22,0,0,1,.36-.86L31.83,34.91a1.22,1.22,0,0,0,.36-.86V28.88a1.22,1.22,0,0,1,1.22-1.22h2v1.17h2.46v.63H55.82a1.22,1.22,0,0,0,.86-.36l2.2-2.2a1.22,1.22,0,0,1,.86-.36h1A1.22,1.22,0,0,1,62,27.75V61.4"/><path class="cls-2" d="M61.07,61H24L18,36.67A3.78,3.78,0,0,1,21.71,32H51a3.78,3.78,0,0,1,3.67,2.88Z"/><path class="cls-3" d="M61.07,61,54.66,34.86a3.75,3.75,0,0,0-.39-.95,3.76,3.76,0,0,0-1.14-.18H23.86a3.78,3.78,0,0,0-3.67,4.69L25.73,61Z"/><path class="cls-4" d="M23.5,58.92a2,2,0,0,0,1.38.56H58a2,2,0,0,0,2-2V56.41L54.66,34.86A3.78,3.78,0,0,0,51,32H47.59l-1,2.36a1,1,0,0,1-.95.64H24.88a2,2,0,0,0-2,2V56.41Z"/><path class="cls-5" d="M61.07,61H24L18,36.67A3.78,3.78,0,0,1,21.71,32H51a3.78,3.78,0,0,1,3.67,2.88Z"/><path class="cls-6" d="M5.32,3A2.25,2.25,0,0,0,3.07,5.23V41.73A2.25,2.25,0,0,0,5.32,44H30.83a1.25,1.25,0,0,0,1.25-1.25V8l-5-5Z"/><path class="cls-7" d="M5.32,3a2.23,2.23,0,0,0-1.53.61L4.07,4,14.49,14.4a10.53,10.53,0,0,1,3.08,7.45V44H30.83a1.25,1.25,0,0,0,1.25-1.25V8l-5-5Z"/><path class="cls-8" d="M32.07,42.73V32H21.71A3.78,3.78,0,0,0,18,36.67L19.83,44h11A1.25,1.25,0,0,0,32.07,42.73Z"/><path class="cls-8" d="M29.73,5.63V40.39a1.25,1.25,0,0,1-1.25,1.25H3.07v.09A2.25,2.25,0,0,0,5.32,44H29.83a2.25,2.25,0,0,0,2.25-2.25V8Z"/><path class="cls-9" d="M29.73,5.63V40.39a1.25,1.25,0,0,1-1.25,1.25H17.57V44H29.83a2.25,2.25,0,0,0,2.25-2.25V8Z"/><path class="cls-10" d="M5.57,6.53A1.06,1.06,0,0,1,6.63,5.48h23L27.09,3H5.32A2.25,2.25,0,0,0,3.07,5.23V41.73A2.25,2.25,0,0,0,5.32,44h.25Z"/><path class="cls-6" d="M4.56,3.12l-.09,0a2.28,2.28,0,0,0-.69.45L4.07,4,5.88,5.79a1.06,1.06,0,0,1,.75-.31h23L27.09,3H5.32a2.25,2.25,0,0,0-.44,0A2.19,2.19,0,0,0,4.56,3.12Z"/><path class="cls-11" d="M4.62,43.28V5.58A1.06,1.06,0,0,1,5.68,4.53h23L27.09,3H5.32A2.25,2.25,0,0,0,3.07,5.23V41.73a2.24,2.24,0,0,0,1.64,2.15A2.22,2.22,0,0,1,4.62,43.28Z"/><path class="cls-10" d="M4.56,3.12h0l-.06,0a2.27,2.27,0,0,0-.69.45L4.07,4l.86.86a1.05,1.05,0,0,1,.75-.31h23L27.09,3H5.32a2.25,2.25,0,0,0-.44,0A2.19,2.19,0,0,0,4.56,3.12Z"/><path class="cls-6" d="M3.07,41.64v.09A2.25,2.25,0,0,0,5.32,44h.25V41.64Z"/><path class="cls-8" d="M26.71,44h3.12a2.25,2.25,0,0,0,2.25-2.25V8L29.58,5.47H26.71Z"/><path class="cls-12" d="M29.73,5.63V40.39a1.25,1.25,0,0,1-1.25,1.25H26.71V44h3.12a2.25,2.25,0,0,0,2.25-2.25V8Z"/><path class="cls-10" d="M19,36.43A2.78,2.78,0,0,1,21.71,33H32.07V31H21.71a4.78,4.78,0,0,0-4.65,5.93L18.8,44h2.06Z"/><path class="cls-6" d="M17.94,32.81a4.85,4.85,0,0,0-.37.55V39l1.23,5h2.06L19,36.43A2.78,2.78,0,0,1,21.71,33H32.07V31H21.71A4.76,4.76,0,0,0,17.94,32.81Z"/><polygon class="cls-8" points="18.23 41.64 18.8 43.98 20.86 43.98 20.29 41.64 18.23 41.64"/><rect class="cls-8" x="29.73" y="30.98" width="2.34" height="2"/><rect class="cls-7" x="26.71" y="30.98" width="5.36" height="2"/><rect class="cls-8" x="29.73" y="30.98" width="2.34" height="2"/><path class="cls-12" d="M32.07,10.25H29.33a2.62,2.62,0,0,1-2.62-2.62V4.89a.37.37,0,0,1,.64-.27l5,5a.37.37,0,0,1-.27.64Z"/><polygon class="cls-13" points="29.73 7 29.73 10.25 32.07 10.25 32.07 9.34 29.73 7"/><path class="cls-14" d="M29.33,8h2.74l-5-5V5.72A2.25,2.25,0,0,0,29.33,8Z"/><path class="cls-2" d="M32.07,8.34H29.33a2.62,2.62,0,0,1-2.62-2.62V3a.37.37,0,0,1,.64-.27l5,5a.37.37,0,0,1-.27.64ZM27.46,3.88V5.72a1.87,1.87,0,0,0,1.87,1.87h1.84Z"/><path class="cls-10" d="M29.33,8.34a2.62,2.62,0,0,1-2.62-2.62V3h-1V5.72a3.63,3.63,0,0,0,3.62,3.62h2.74v-1Z"/><path class="cls-5" d="M5.32,3A2.25,2.25,0,0,0,3.07,5.23V41.73A2.25,2.25,0,0,0,5.32,44H29.83a2.25,2.25,0,0,0,2.25-2.25V8l-5-5Z"/><line class="cls-15" x1="12.14" y1="26.92" x2="23.38" y2="26.92"/><line class="cls-15" x1="12.14" y1="29.45" x2="23.38" y2="29.45"/><line class="cls-15" x1="12.14" y1="31.98" x2="16.76" y2="31.98"/><line class="cls-15" x1="20.59" y1="31.98" x2="20.95" y2="31.98"/><circle class="cls-2" cx="17.76" cy="17.23" r="6.25"/><circle class="cls-14" cx="17.76" cy="17.23" r="5.12"/><path class="cls-2" d="M17.76,23.48A6.25,6.25,0,1,0,13.14,13l1.35,1.35a10.53,10.53,0,0,1,3.08,7.45v1.63Z"/><path class="cls-16" d="M17.76,19.46a8.58,8.58,0,0,0-5,1.46,6.23,6.23,0,0,0,10.07,0A8.58,8.58,0,0,0,17.76,19.46Z"/><path class="cls-17" d="M17.76,20a7.47,7.47,0,0,0-4.38,1.27,5.43,5.43,0,0,0,8.77,0A7.47,7.47,0,0,0,17.76,20Z"/><path class="cls-18" d="M18.68,23.4l.49-.09.21-.06.47-.15L20,23q.28-.11.54-.24l.07,0a6.28,6.28,0,0,0,1.69-1.29h0a6.33,6.33,0,0,0,.46-.55,8.58,8.58,0,0,0-5-1.46l-.47,0a10.51,10.51,0,0,1,.28,2.36v1.63h.19a6.26,6.26,0,0,0,.71,0Z"/><path class="cls-17" d="M22.14,21.25A7.47,7.47,0,0,0,17.76,20l-.37,0a10.21,10.21,0,0,1,.19,1.84v1.63h.19A5.43,5.43,0,0,0,22.14,21.25Z"/><circle class="cls-15" cx="17.76" cy="17.23" r="6.25"/><path class="cls-19" d="M17.76,23.48a6.25,6.25,0,0,1-6.25-6.25"/><path class="cls-20" d="M17.76,11A6.25,6.25,0,0,1,24,17.23"/><path class="cls-19" d="M13.34,21.65a6.25,6.25,0,0,1,0-8.83"/><path class="cls-20" d="M22.18,12.82a6.25,6.25,0,0,1,0,8.83"/><path class="cls-16" d="M20.08,15.74a2.17,2.17,0,0,1-.15-.84h0s0,0,0-.06a2,2,0,0,0-2.16-1.59,2,2,0,0,0-2.16,1.59s0,0,0,.06a2.21,2.21,0,0,1-.15.86,2.16,2.16,0,0,0-.16,1,2.23,2.23,0,0,0,1.85,1.93c1.65.36,3.13-.57,3.13-2A2.16,2.16,0,0,0,20.08,15.74Z"/><path class="cls-18" d="M19.93,14.89h0s0,0,0-.06a2,2,0,0,0-2.16-1.59,2,2,0,0,0-2.16,1.59s0,0,0,.06a2.35,2.35,0,0,1-.11.68,10.51,10.51,0,0,1,1.57,3l.07,0c1.65.36,3.13-.57,3.13-2a2.16,2.16,0,0,0-.17-.84A2.17,2.17,0,0,1,19.93,14.89Z"/><path class="cls-17" d="M19.74,15.86a1.85,1.85,0,0,1-.13-.72h0s0,0,0-.05a1.67,1.67,0,0,0-1.84-1.36,1.67,1.67,0,0,0-1.84,1.36s0,0,0,.05a1.88,1.88,0,0,1-.13.73,1.84,1.84,0,0,0-.14.81,1.9,1.9,0,0,0,1.58,1.64,2,2,0,0,0,2.66-1.74A1.84,1.84,0,0,0,19.74,15.86Z"/><path class="cls-21" d="M17.45,15.91c1.27-.36,2.12-1.28,2.06-2.14a3,3,0,0,0-1.75-.54,2.29,2.29,0,0,0-2.51,1.86s0,0,0,.07a2.9,2.9,0,0,1-.07.6A3.1,3.1,0,0,0,17.45,15.91Z"/><path class="cls-22" d="M17.45,15.91a3,3,0,0,0,1.92-1.45,2,2,0,0,0-1.61-.73,1.67,1.67,0,0,0-1.84,1.36s0,0,0,.05a1.88,1.88,0,0,1-.13.73s0,.07,0,.11A3.43,3.43,0,0,0,17.45,15.91Z"/><path class="cls-22" d="M20.29,15.16s0,0,0-.07a2.11,2.11,0,0,0-1.91-1.8,1.17,1.17,0,0,0-.11.24c-.26.92.65,2,2,2.38l.12,0a2.69,2.69,0,0,1-.12-.77Z"/><circle class="cls-22" cx="16.63" cy="16.43" r="0.12"/><circle class="cls-22" cx="18.88" cy="16.43" r="0.12"/><path class="cls-23" d="M48.82,33.22l-.82,2a2,2,0,0,1-1.85,1.24H26a2,2,0,0,0-2,2V59a2,2,0,0,0,2,2H59.08a2,2,0,0,0,2-2V34a2,2,0,0,0-2-2h-8.4A2,2,0,0,0,48.82,33.22Z"/><path class="cls-24" d="M58.5,61l1.61-.3a2,2,0,0,0,1-1.7V34a2,2,0,0,0-2-2h-8.4a2,2,0,0,0-1.85,1.24l-.82,2a2,2,0,0,1-1.85,1.24H35l-1,.87L44.48,47.89a4.16,4.16,0,0,1,1.22,2.94V61Z"/><path class="cls-25" d="M26.34,39.54a.72.72,0,0,1,.72-.72H48.48a2,2,0,0,0,1.85-1.24L51.39,35a1.06,1.06,0,0,1,1-.66h8.7V34a2,2,0,0,0-2-2h-8.4a2,2,0,0,0-1.85,1.24l-.82,2a2,2,0,0,1-1.85,1.24H26a2,2,0,0,0-2,2V59a2,2,0,0,0,2,2h.34Z"/><path class="cls-26" d="M33.07,39.9H24V59a2,2,0,0,0,2,2h7.07Z"/><path class="cls-25" d="M24,39.9V59a2,2,0,0,0,2,2h.34V39.9Z"/><path class="cls-26" d="M33.95,41.86V37.35h-2v5.25a1.25,1.25,0,0,1-1.25,1.25H24.88v2H30A4,4,0,0,0,33.95,41.86Z"/><rect class="cls-23" x="24.88" y="43.85" width="1.46" height="2"/><rect class="cls-23" x="31.95" y="37.35" width="2" height="1.46"/><path class="cls-27" d="M31.95,42.61a1.25,1.25,0,0,1-1.25,1.25H24.88v2H30a4,4,0,0,0,3.12-1.53V39.9H31.95Z"/><rect class="cls-23" x="24.88" y="43.85" width="1.46" height="2"/><path class="cls-28" d="M30.83,44a1.25,1.25,0,0,0,1.25-1.25V36.48H26a2,2,0,0,0-2,2V44Z"/><path class="cls-29" d="M26.34,39.54a.72.72,0,0,1,.72-.72h5V36.48H26a2,2,0,0,0-2,2V44h2.33Z"/><path class="cls-29" d="M26,36.48a2,2,0,0,0-2,2v3.09h5a.61.61,0,0,0,.61-.61V36.48Z"/><path class="cls-30" d="M26.34,39.54a.72.72,0,0,1,.72-.72h2.6V36.48H26a2,2,0,0,0-2,2v3.09h2.33Z"/><path class="cls-31" d="M33.07,41.73V36.48h-2v5.25A1.25,1.25,0,0,1,29.83,43H24v2h5.82A3.25,3.25,0,0,0,33.07,41.73Z"/><rect class="cls-32" x="31.07" y="36.48" width="2" height="2.33"/><rect class="cls-32" x="24.01" y="42.98" width="2.33" height="2"/><path class="cls-5" d="M48.82,33.22l-.82,2a2,2,0,0,1-1.85,1.24H26a2,2,0,0,0-2,2V59a2,2,0,0,0,2,2H59.08a2,2,0,0,0,2-2V34a2,2,0,0,0-2-2h-8.4A2,2,0,0,0,48.82,33.22Z"/><line class="cls-5" x1="49.76" y1="36.48" x2="26" y2="36.48"/><circle class="cls-2" cx="42.65" cy="21.4" r="5.77"/><path class="cls-3" d="M42.65,27.17a5.77,5.77,0,0,0,4.78-9H42.65Z"/><path class="cls-33" d="M42.65,14.44V21a.44.44,0,0,0,.44.44h6.52a1.13,1.13,0,0,0,1.13-1.28,8.2,8.2,0,0,0-6.82-6.82A1.13,1.13,0,0,0,42.65,14.44Z"/><path class="cls-16" d="M42.65,15.63V21a.44.44,0,0,0,.44.44h5.32A5.77,5.77,0,0,0,42.65,15.63Z"/><line class="cls-34" x1="51.6" y1="53.33" x2="57.63" y2="53.33"/><line class="cls-34" x1="51.6" y1="55.23" x2="57.63" y2="55.23"/><line class="cls-34" x1="51.6" y1="57.13" x2="54.08" y2="57.13"/><line class="cls-34" x1="56.14" y1="57.13" x2="56.33" y2="57.13"/><path class="cls-16" d="M4.81,50.3h1a.49.49,0,0,1,.49.49v5.12a0,0,0,0,1,0,0h-2a0,0,0,0,1,0,0V50.79A.49.49,0,0,1,4.81,50.3Z"/><path class="cls-16" d="M7.91,54.19h1a.49.49,0,0,1,.49.49v1.23a0,0,0,0,1,0,0h-2a0,0,0,0,1,0,0V54.68A.49.49,0,0,1,7.91,54.19Z"/><path class="cls-16" d="M11,52.25h1a.49.49,0,0,1,.49.49v3.18a0,0,0,0,1,0,0h-2a0,0,0,0,1,0,0V52.73A.49.49,0,0,1,11,52.25Z"/><path class="cls-14" d="M14.12,48.36h1a.49.49,0,0,1,.49.49v7.07a0,0,0,0,1,0,0h-2a0,0,0,0,1,0,0V48.84A.49.49,0,0,1,14.12,48.36Z"/><rect class="cls-16" x="4.32" y="56.83" width="11.31" height="0.6"/><path class="cls-1" d="M56.4,10.67h0a.43.43,0,0,0-.43-.43H53.68A.72.72,0,0,0,53,11h0a.72.72,0,0,0,.72.72h1.14a.43.43,0,0,1,.43.43h0a.43.43,0,0,0,.43.43H58a.72.72,0,0,0,.72-.72h0A.72.72,0,0,0,58,11.1H56.83A.43.43,0,0,1,56.4,10.67Z"/><path class="cls-1" d="M49.77,6.68h0a.52.52,0,0,1,.52-.52h2.78a.87.87,0,0,1,.87.87h0a.87.87,0,0,1-.87.87H51.68a.52.52,0,0,0-.52.52h0a.52.52,0,0,1-.52.52H47.86A.87.87,0,0,1,47,8.07h0a.87.87,0,0,1,.87-.87h1.39A.52.52,0,0,0,49.77,6.68Z"/><circle class="cls-1" cx="56.94" cy="18.35" r="1.11"/><circle class="cls-1" cx="56.51" cy="24.12" r="0.69"/><circle class="cls-1" cx="53.12" cy="22.51" r="0.16"/><circle class="cls-1" cx="52.44" cy="26.82" r="0.84"/><circle class="cls-1" cx="39.23" cy="8.35" r="1.35"/><circle class="cls-1" cx="36.34" cy="12.67" r="0.14"/><circle class="cls-1" cx="35.42" cy="17.7" r="0.47"/><circle class="cls-1" cx="48.4" cy="27.99" r="0.83"/></svg>