<svg id="Layer_1" data-name="Layer 1" xmlns="http://www.w3.org/2000/svg" viewBox="0 0 64 64"><defs><style>.cls-1{fill:#d9ebf4;}.cls-2{fill:#c6e2f4;}.cls-27,.cls-3,.cls-6{fill:none;stroke-linecap:round;stroke-width:2px;}.cls-3{stroke:#041256;}.cls-27,.cls-3{stroke-linejoin:round;}.cls-4{fill:#b8bdcc;}.cls-5{fill:#96a1bc;}.cls-6{stroke:#96a1bc;stroke-miterlimit:10;}.cls-7{fill:#91e8c0;}.cls-8{fill:#5bbcbc;}.cls-9{fill:#d3d7e2;}.cls-10{fill:#eaedf4;}.cls-11{fill:#14918e;}.cls-12{fill:#3dc18b;}.cls-13{fill:#67dba9;}.cls-14{fill:#42567c;}.cls-15{fill:#56709b;}.cls-16{fill:#384666;}.cls-17{fill:#4098e2;}.cls-18{fill:#59c3f7;}.cls-19{fill:#041256;}.cls-20{fill:#a7aec1;}.cls-21{fill:#d9dde8;}.cls-22{fill:#83e7ea;}.cls-23{fill:#efab89;}.cls-24{fill:#fcc3a9;}.cls-25{fill:#dd8573;}.cls-26{fill:#172a72;}.cls-27{stroke:#fff;}.cls-28{fill:#22357c;}.cls-29{fill:#627ec4;}.cls-30{fill:#4159a3;}</style></defs><title>id, identification, card, business, employee</title><path class="cls-1" d="M51.66,11.14H49.23a.76.76,0,0,1,0-1.52h1.21a.46.46,0,0,0,.46-.46.46.46,0,0,1,.46-.46h2.43a.76.76,0,1,1,0,1.52H52.57a.46.46,0,0,0-.46.46A.46.46,0,0,1,51.66,11.14Z"/><path class="cls-1" d="M53.63,12.33H55a.26.26,0,0,1,.26.26.26.26,0,0,0,.26.26h.7a.44.44,0,0,1,0,.88H54.86a.26.26,0,0,1-.26-.26.26.26,0,0,0-.26-.26h-.7a.44.44,0,1,1,0-.88Z"/><path class="cls-1" d="M48.91,4.63h1.41a.26.26,0,0,1,.26.26.26.26,0,0,0,.26.26h.7a.44.44,0,0,1,0,.88H50.15a.26.26,0,0,1-.26-.26.26.26,0,0,0-.26-.26h-.7a.44.44,0,0,1,0-.88Z"/><circle class="cls-1" cx="51.51" cy="19.24" r="0.63"/><circle class="cls-1" cx="51.5" cy="14.19" r="0.61"/><circle class="cls-1" cx="48.47" cy="15.44" r="0.98"/><circle class="cls-1" cx="47.88" cy="7.82" r="0.32"/><circle class="cls-1" cx="57.87" cy="15.44" r="0.39"/><circle class="cls-1" cx="54.95" cy="16.65" r="1.02"/><circle class="cls-1" cx="58.91" cy="12.68" r="0.35"/><path class="cls-1" d="M18.69,5.86h0a.5.5,0,0,0-.5-.5H15.52a.83.83,0,0,0-.83.83h0a.83.83,0,0,0,.83.83h1.33a.5.5,0,0,1,.5.5h0a.5.5,0,0,0,.5.5h2.67a.83.83,0,0,0,.83-.83h0a.83.83,0,0,0-.83-.83H19.19A.5.5,0,0,1,18.69,5.86Z"/><path class="cls-1" d="M13.85,9.63h0a.29.29,0,0,1,.29-.29h1.55a.48.48,0,0,1,.48.48h0a.48.48,0,0,1-.48.48h-.77a.29.29,0,0,0-.29.29h0a.29.29,0,0,1-.29.29H12.79a.48.48,0,0,1-.48-.48h0a.48.48,0,0,1,.48-.48h.77A.29.29,0,0,0,13.85,9.63Z"/><circle class="cls-1" cx="17.15" cy="17.54" r="0.7"/><circle class="cls-1" cx="18.02" cy="11.38" r="0.67"/><circle class="cls-1" cx="21.36" cy="12.76" r="1.08"/><circle class="cls-1" cx="22.01" cy="4.39" r="0.35"/><circle class="cls-1" cx="11.02" cy="12.76" r="0.43"/><circle class="cls-1" cx="14.24" cy="14.09" r="1.12"/><circle class="cls-1" cx="9.88" cy="9.73" r="0.39"/><path class="cls-2" d="M61,60V32.68a.89.89,0,0,0-.89-.89h-.93a.89.89,0,0,0-.89.89V35a.89.89,0,0,1-.89.89h-3a.89.89,0,0,0-.89.89V47.11a.89.89,0,0,1-.89.89H50.74a.89.89,0,0,0-.89.89v6.54a.89.89,0,0,1-.89.89h-.9a.89.89,0,0,1-.89-.89V54.3a.89.89,0,0,0-.89-.89h-.81a.89.89,0,0,1-.89-.89V51a.89.89,0,0,0-.89-.89H38.9A.89.89,0,0,1,38,49.2v-.91a.89.89,0,0,0-.89-.89H21.71a.89.89,0,0,0-.63.26l-4.14,4.14a.89.89,0,0,1-.63.26H15.07a.89.89,0,0,0-.89.89v3a.89.89,0,0,1-.89.89h-.51a.89.89,0,0,1-.89-.89v-.52a.89.89,0,0,0-.89-.89h-.65a.89.89,0,0,1-.89-.89.89.89,0,0,0-.89-.89H3.94a.89.89,0,0,0-.89.89V60Z"/><line class="cls-3" x1="61" y1="59.96" x2="3" y2="59.96"/><rect class="cls-4" x="3.02" y="15.82" width="57.95" height="38.01" rx="5.6" ry="5.6"/><path class="cls-5" d="M55.37,53.84a5.57,5.57,0,0,0,3.08-.93h0a13.34,13.34,0,0,1-5-3.13L30.57,26.85,13.93,42.56l5.25,5.25a8.52,8.52,0,0,1,2.5,6h33.7Z"/><line class="cls-6" x1="38.08" y1="30.33" x2="50.89" y2="30.33"/><line class="cls-6" x1="38.08" y1="35.75" x2="50.89" y2="35.75"/><line class="cls-6" x1="38.08" y1="41.18" x2="44" y2="41.18"/><line class="cls-6" x1="47.49" y1="41.18" x2="47.49" y2="41.18"/><path class="cls-7" d="M58.28,16.64a5.57,5.57,0,0,1,1.17,3.42V48.13a4.34,4.34,0,0,1-4.34,4.34H7.1a5.57,5.57,0,0,1-2.91-.82,5.59,5.59,0,0,0,4.43,2.18H55.37a5.6,5.6,0,0,0,5.6-5.6V21.43A5.59,5.59,0,0,0,58.28,16.64Z"/><path class="cls-8" d="M56.3,53.75a5.56,5.56,0,0,0,.7-.16h0a5.57,5.57,0,0,0,.7-.27l.11-.05a5.63,5.63,0,0,0,.64-.36,13.32,13.32,0,0,1-1.71-.76,4.32,4.32,0,0,1-1.64.33H21.55a8.51,8.51,0,0,1,.12,1.36h33.7a5.59,5.59,0,0,0,.75-.06Z"/><path class="cls-9" d="M6.35,51.56V23.64a4.49,4.49,0,0,1,4.49-4.49H58.7a5.58,5.58,0,0,1,1.93.35,5.6,5.6,0,0,0-5.25-3.67H8.63A5.6,5.6,0,0,0,3,21.43V48.23A5.6,5.6,0,0,0,6.7,53.49,5.58,5.58,0,0,1,6.35,51.56Z"/><path class="cls-10" d="M19.42,15.82H8.63A5.6,5.6,0,0,0,3,21.43V48.23A5.58,5.58,0,0,0,5.76,53a5.54,5.54,0,0,1-.81-2.87V22.23a4.49,4.49,0,0,1,4.49-4.49h8.7a1.28,1.28,0,0,0,1.28-1.28Z"/><path class="cls-10" d="M55.37,15.82h-33v.64a1.28,1.28,0,0,0,1.28,1.28H57.29a5.54,5.54,0,0,1,2.87.81A5.58,5.58,0,0,0,55.37,15.82Z"/><path class="cls-5" d="M37,15.82,27,19.87a10.4,10.4,0,0,0,7.35,3h4.77A4.93,4.93,0,0,0,44,18V15.82Z"/><path class="cls-4" d="M43.85,19.15A4.9,4.9,0,0,0,44,18V15.82H37l-8.29,3.32Z"/><polygon class="cls-9" points="44 17.75 44 15.82 37.04 15.82 32.25 17.75 44 17.75"/><circle class="cls-11" cx="22.34" cy="34.83" r="10.39"/><circle class="cls-12" cx="22.34" cy="34.83" r="8.41"/><circle class="cls-13" cx="22.34" cy="34.83" r="7.27"/><path class="cls-14" d="M29.77,37.94a14.87,14.87,0,0,0-14.87,0,5.15,5.15,0,0,0-1.77,1.7,10.38,10.38,0,0,0,18.4,0A5.15,5.15,0,0,0,29.77,37.94Z"/><path class="cls-15" d="M14.91,39.92a14.87,14.87,0,0,1,14.87,0,5,5,0,0,1,1.08.85,10.41,10.41,0,0,0,.69-1.12,5.15,5.15,0,0,0-1.77-1.7,14.87,14.87,0,0,0-14.87,0,5.15,5.15,0,0,0-1.77,1.7,10.4,10.4,0,0,0,.69,1.12A5,5,0,0,1,14.91,39.92Z"/><path class="cls-16" d="M29.77,37.94a14.86,14.86,0,0,0-9.59-1.83l-2.9,1.78,1.65,5a.57.57,0,0,0,.54.39.57.57,0,0,1,.55.42l.18.63h-2a10.38,10.38,0,0,0,13.33-4.71A5.15,5.15,0,0,0,29.77,37.94Z"/><path class="cls-14" d="M28.44,37.27l-.77-.32-.32-.12q-.45-.16-.91-.29l-.17-.05c-.38-.1-.77-.2-1.16-.27h0c-.37-.07-.74-.12-1.11-.16l-.18,0c-.35,0-.71-.06-1.06-.07h-.1a14.93,14.93,0,0,0-2.42.15h0l-2.9,1.78.27.82a14.87,14.87,0,0,1,12.22,1.2,5,5,0,0,1,1.08.85h0a10.4,10.4,0,0,0,.69-1.12,5.15,5.15,0,0,0-1.77-1.7c-.34-.19-.68-.37-1-.53Z"/><path class="cls-3" d="M29.77,37.94a14.87,14.87,0,0,0-14.87,0,5.15,5.15,0,0,0-1.77,1.7,10.38,10.38,0,0,0,18.4,0A5.15,5.15,0,0,0,29.77,37.94Z"/><path class="cls-17" d="M21.26,45.22h2.16a11.43,11.43,0,0,0-.65-2.51.54.54,0,0,1,.12-.58,1.5,1.5,0,0,0,.39-1,1.52,1.52,0,0,0-.95-1.41,1.52,1.52,0,0,0-.95,1.41,1.5,1.5,0,0,0,.39,1,.54.54,0,0,1,.12.58A11.43,11.43,0,0,0,21.26,45.22Z"/><path class="cls-18" d="M22,42.13a1.51,1.51,0,0,1,.43-2.36l-.13-.06a1.52,1.52,0,0,0-.95,1.41,1.5,1.5,0,0,0,.39,1,.54.54,0,0,1,.12.58,11.43,11.43,0,0,0-.65,2.51h.26a11.43,11.43,0,0,1,.65-2.51A.54.54,0,0,0,22,42.13Z"/><path class="cls-18" d="M22.16,42.11l-.28.16a.55.55,0,0,1,.06.2l.33-.18c.34-.19.64-.39.91-.58a1.48,1.48,0,0,0,.1-.32A12.31,12.31,0,0,1,22.16,42.11Z"/><path class="cls-18" d="M22.26,43.1l.54-.33,0-.06a.49.49,0,0,1,0-.15l-.58.36-.41.23-.09.27Z"/><path class="cls-18" d="M22.26,43.91c.28-.16.53-.32.77-.48L23,43.23c-.24.16-.51.34-.81.51l-.68.37-.06.26C21.68,44.23,22,44.08,22.26,43.91Z"/><path class="cls-18" d="M23.16,43.91c-.29.2-.63.42-1,.64s-.59.33-.86.46l0,.21h.07c.29-.14.6-.3.93-.49s.67-.41.95-.6Z"/><path class="cls-18" d="M22.79,45.22l.56-.38,0-.22c-.25.19-.56.4-.91.61Z"/><path class="cls-19" d="M22.34,39.71a1.52,1.52,0,0,1,.95,1.41,1.5,1.5,0,0,1-.39,1,.54.54,0,0,0-.12.58,11.34,11.34,0,0,1,.64,2.46c-.34,0-.68.05-1,.05h-.1c-.34,0-.68,0-1-.05a11.34,11.34,0,0,1,.64-2.46.54.54,0,0,0-.12-.58,1.5,1.5,0,0,1-.39-1,1.52,1.52,0,0,1,.95-1.41m0-1a1,1,0,0,0-.38.07,2.51,2.51,0,0,0-1.09,3.81,13,13,0,0,0-.6,2.41,1,1,0,0,0,.89,1.15c.35,0,.73.06,1.12.06h.11c.39,0,.77,0,1.12-.06A1,1,0,0,0,24.4,45a13,13,0,0,0-.6-2.41,2.51,2.51,0,0,0-1.09-3.81,1,1,0,0,0-.38-.07Z"/><path class="cls-19" d="M19.67,36a4,4,0,0,0,2.67,3.51A4,4,0,0,0,25,36,12.84,12.84,0,0,0,19.67,36Z"/><ellipse class="cls-19" cx="22.34" cy="36.26" rx="3.31" ry="1.48"/><path class="cls-20" d="M22.34,34.47c-1.83,0-3.31.66-3.31,1.48l.65.12c0-.65,1.2-1.18,2.66-1.18S25,35.42,25,36.07l.64-.12C25.65,35.14,24.17,34.47,22.34,34.47Z"/><path class="cls-4" d="M19.67,36v-.49a.23.23,0,0,0-.4-.15l-.65.75a.63.63,0,0,0-.15.53,5.71,5.71,0,0,0,2.4,3.84.55.55,0,0,0,.7-.1l.77-.87A4,4,0,0,1,19.67,36Z"/><path class="cls-21" d="M21.09,40.28a5.71,5.71,0,0,1-2.4-3.84.63.63,0,0,1,.15-.53l.5-.58-.08.06-.65.75a.63.63,0,0,0-.15.53,5.71,5.71,0,0,0,2.4,3.84.55.55,0,0,0,.7-.1l.14-.16A.54.54,0,0,1,21.09,40.28Z"/><path class="cls-4" d="M25,36v-.49a.23.23,0,0,1,.4-.15l.65.75a.63.63,0,0,1,.15.53,5.71,5.71,0,0,1-2.4,3.84.55.55,0,0,1-.7-.1l-.77-.87A4,4,0,0,0,25,36Z"/><path class="cls-22" d="M26.06,36.14l-.65-.75,0,0,.61.69a.63.63,0,0,1,.15.53,5.71,5.71,0,0,1-2.4,3.84.54.54,0,0,1-.66-.08l.06.06a.55.55,0,0,0,.7.1,5.71,5.71,0,0,0,2.4-3.84A.63.63,0,0,0,26.06,36.14Z"/><path class="cls-19" d="M22.34,34.47a4.45,4.45,0,0,1,3.06.92h0l.65.75a.63.63,0,0,1,.15.53,5.71,5.71,0,0,1-2.4,3.84.54.54,0,0,1-.29.08.55.55,0,0,1-.41-.18l-.77-.87-.77.87a.55.55,0,0,1-.41.18.54.54,0,0,1-.29-.08,5.71,5.71,0,0,1-2.4-3.84.63.63,0,0,1,.15-.53l.65-.75h0a4.45,4.45,0,0,1,3.06-.92m0-2A6.33,6.33,0,0,0,17.87,34l-.12.12-.64.73A2.62,2.62,0,0,0,16.5,37a7.7,7.7,0,0,0,3.31,5.19,2.55,2.55,0,0,0,2.53.1,2.55,2.55,0,0,0,2.53-.1A7.7,7.7,0,0,0,28.18,37a2.62,2.62,0,0,0-.61-2.19l-.65-.75-.09-.1a6.27,6.27,0,0,0-4.48-1.51Z"/><circle class="cls-3" cx="22.34" cy="34.83" r="10.39"/><path class="cls-23" d="M27.65,32.82v-3a5.42,5.42,0,0,0-4-5.24h0a5.42,5.42,0,0,0-2.78,0h0a5.42,5.42,0,0,0-4,5.24v3a4.57,4.57,0,0,0,2.29,4l1.29.74a3.69,3.69,0,0,0,3.69,0l1.29-.74A4.57,4.57,0,0,0,27.65,32.82Z"/><path class="cls-24" d="M26.3,36,25,36.77a3.69,3.69,0,0,1-3.69,0L20,36a4.57,4.57,0,0,1-2.29-4v-3a5.41,5.41,0,0,1,1.59-3.82,5.41,5.41,0,0,0-2.53,4.57v3a4.57,4.57,0,0,0,2.29,4l1.29.74a3.69,3.69,0,0,0,3.69,0l1.29-.74a4.56,4.56,0,0,0,1-.81Z"/><path class="cls-25" d="M27.63,30.86a5.41,5.41,0,0,0-2.9-4.61h0L24.27,26a4.68,4.68,0,0,0-.66-.23,5.43,5.43,0,0,0-4.89,1.09,5.63,5.63,0,0,0-1.92,4.34V32H21a1.25,1.25,0,0,1,1.31,1.22V38a3.68,3.68,0,0,0,1.73-.49l1.29-.74a4.57,4.57,0,0,0,2.29-4v-2Z"/><path class="cls-19" d="M24.73,25.07h0l-.46-.22a4.68,4.68,0,0,0-.66-.23,5.43,5.43,0,0,0-4.89,1.09,5.63,5.63,0,0,0-1.92,4.34v.8H21a3.69,3.69,0,0,0,2.75-1.22.39.39,0,0,1,.58,0,3.69,3.69,0,0,0,2.75,1.22h.56v-1A5.41,5.41,0,0,0,24.73,25.07Z"/><path class="cls-26" d="M24.73,25.07h0l-.46-.22a4.68,4.68,0,0,0-.66-.23,5.42,5.42,0,0,0-2-.14h0a5.13,5.13,0,0,0-1.56.43l-.26.14a5.4,5.4,0,0,0-.48.27l-.29.21c-.12.09-.25.19-.36.29l-.28.28-.28.31-.26.34-.21.32c-.08.13-.16.26-.23.4s-.09.21-.14.31-.13.3-.18.46,0,.19-.07.28a5.34,5.34,0,0,0-.12.54h0a5.42,5.42,0,0,0-.07.82v1h.77A5.44,5.44,0,0,1,18,29h.39a3.9,3.9,0,0,0,3.35-1.91A2.27,2.27,0,0,1,24.23,26l.13,0a4.67,4.67,0,0,1,.66.23l.46.22h0a5.45,5.45,0,0,1,1.86,1.61A5.43,5.43,0,0,0,24.73,25.07Z"/><path class="cls-3" d="M27.65,32.82v-3a5.42,5.42,0,0,0-4-5.24h0a5.42,5.42,0,0,0-2.78,0h0a5.42,5.42,0,0,0-4,5.24v3a4.57,4.57,0,0,0,2.29,4l1.29.74a3.69,3.69,0,0,0,3.69,0l1.29-.74A4.57,4.57,0,0,0,27.65,32.82Z"/><path class="cls-23" d="M16.81,33.47h-.23A1.46,1.46,0,0,1,15.12,32h0a1,1,0,0,1,1-1h.73Z"/><path class="cls-3" d="M16.81,33.47h-.23A1.46,1.46,0,0,1,15.12,32h0a1,1,0,0,1,1-1h.73Z"/><path class="cls-23" d="M27.64,33.47h.23A1.46,1.46,0,0,0,29.34,32h0a1,1,0,0,0-1-1h-.73Z"/><path class="cls-3" d="M27.64,33.47h.23A1.46,1.46,0,0,0,29.34,32h0a1,1,0,0,0-1-1h-.73Z"/><rect class="cls-3" x="3.02" y="15.82" width="57.95" height="38.01" rx="5.6" ry="5.6"/><line class="cls-27" x1="38.08" y1="29.41" x2="50.89" y2="29.41"/><line class="cls-27" x1="38.08" y1="34.83" x2="50.89" y2="34.83"/><line class="cls-27" x1="38.08" y1="40.25" x2="44" y2="40.25"/><line class="cls-27" x1="47.49" y1="40.25" x2="47.49" y2="40.25"/><path class="cls-28" d="M30.19,7.82h3.62a3.36,3.36,0,0,1,3.36,3.36v6.67a1.38,1.38,0,0,1-1.38,1.38H28.21a1.38,1.38,0,0,1-1.38-1.38V11.18A3.36,3.36,0,0,1,30.19,7.82Z"/><path class="cls-19" d="M32.22,9.54a2.08,2.08,0,0,0-2.08,2.08v7.61h5.65a1.38,1.38,0,0,0,1.38-1.38V11.18a3.33,3.33,0,0,0-.45-1.64Z"/><path class="cls-29" d="M28.64,11.68a2.2,2.2,0,0,1,2.2-2.2h4.78a3.34,3.34,0,0,1,1.19.23,3.35,3.35,0,0,0-3-1.88H30.19a3.36,3.36,0,0,0-3.36,3.36v6.67a1.38,1.38,0,0,0,1.38,1.38h.43Z"/><path class="cls-30" d="M26.83,15.82v2a1.38,1.38,0,0,0,1.38,1.38h7.59a1.38,1.38,0,0,0,1.38-1.38v-2Z"/><path class="cls-28" d="M30.14,19.24h5.65a1.38,1.38,0,0,0,1.38-1.38v-2h-7Z"/><rect class="cls-29" x="26.83" y="14.82" width="10.34" height="2"/><rect class="cls-30" x="30.14" y="14.82" width="7.03" height="2"/><path class="cls-3" d="M30.19,7.82h3.62a3.36,3.36,0,0,1,3.36,3.36v6.67a1.38,1.38,0,0,1-1.38,1.38H28.21a1.38,1.38,0,0,1-1.38-1.38V11.18A3.36,3.36,0,0,1,30.19,7.82Z"/></svg>