<?xml version="1.0" encoding="UTF-8"?>
<svg width="62px" height="60px" viewBox="0 0 62 60" version="1.1" xmlns="http://www.w3.org/2000/svg" xmlns:xlink="http://www.w3.org/1999/xlink">
    <title>delivery, shipping, shipment, checklist</title>
    <g id="Page-1" stroke="none" stroke-width="1" fill="none" fill-rule="evenodd">
        <g id="delivery,-shipping,-shipment,-checklist" transform="translate(1.000000, 1.000000)">
            <path d="M38,14.65 L38,14.65 C38,14.5200439 38.0516249,14.3954105 38.1435177,14.3035177 C38.2354105,14.2116249 38.3600439,14.16 38.49,14.16 L41.11,14.16 C41.5628735,14.16 41.93,14.5271265 41.93,14.98 L41.93,14.98 C41.93,15.4328735 41.5628735,15.8 41.11,15.8 L39.76,15.8 C39.4893805,15.8 39.27,16.0193805 39.27,16.29 L39.27,16.29 C39.27,16.5606195 39.0506195,16.78 38.78,16.78 L36.16,16.78 C35.7071265,16.78 35.34,16.4128735 35.34,15.96 L35.34,15.96 C35.34,15.5071265 35.7071265,15.14 36.16,15.14 L37.47,15.14 C37.6067357,15.1512002 37.7419043,15.1045636 37.8426418,15.0114289 C37.9433793,14.9182943 38.0004579,14.7871929 38,14.65 Z" id="Path" fill="#D9EBF4" fill-rule="nonzero"></path>
            <path d="M42.7,18.34 L42.7,18.34 C42.7,18.1853603 42.5746397,18.06 42.42,18.06 L40.89,18.06 C40.6304262,18.06 40.42,18.2704262 40.42,18.53 L40.42,18.53 C40.42,18.7895738 40.6304262,19 40.89,19 L41.65,19 C41.8046397,19 41.93,19.1253603 41.93,19.28 L41.93,19.28 C41.93,19.3542606 41.9594999,19.4254797 42.0120101,19.4779899 C42.0645203,19.5305001 42.1357394,19.56 42.21,19.56 L43.73,19.56 C43.9895738,19.56 44.2,19.3495738 44.2,19.09 L44.2,19.09 C44.2,18.8304262 43.9895738,18.62 43.73,18.62 L43,18.62 C42.9223393,18.6255617 42.8458697,18.5985358 42.78895,18.5454107 C42.7320303,18.4922857 42.6998011,18.4178594 42.7,18.34 Z" id="Path" fill="#D9EBF4" fill-rule="nonzero"></path>
            <circle id="Oval" fill="#D9EBF4" fill-rule="nonzero" cx="49.02" cy="19.9" r="1"></circle>
            <circle id="Oval" fill="#D9EBF4" fill-rule="nonzero" cx="38.61" cy="20.06" r="1"></circle>
            <circle id="Oval" fill="#D9EBF4" fill-rule="nonzero" cx="35.34" cy="21.4" r="1.06"></circle>
            <circle id="Oval" fill="#D9EBF4" fill-rule="nonzero" cx="34.71" cy="13.2" r="1"></circle>
            <circle id="Oval" fill="#D9EBF4" fill-rule="nonzero" cx="45.47" cy="21.4" r="1"></circle>
            <circle id="Oval" fill="#D9EBF4" fill-rule="nonzero" cx="42.32" cy="22.71" r="1.1"></circle>
            <circle id="Oval" fill="#D9EBF4" fill-rule="nonzero" cx="46.59" cy="18.43" r="1"></circle>
            <path d="M54.19,2.48 L54.19,2.48 C54.19,2.13206061 53.9079394,1.85 53.56,1.85 L50.2,1.85 C49.6477153,1.85 49.2,2.29771525 49.2,2.85 L49.2,2.85 C49.2,3.40228475 49.6477153,3.85 50.2,3.85 L51.88,3.85 C52.2279394,3.85 52.51,4.13206061 52.51,4.48 L52.51,4.48 C52.51,4.82793939 52.7920606,5.11 53.14,5.11 L56.5,5.11 C57.0522847,5.11 57.5,4.66228475 57.5,4.11 L57.5,4.11 C57.5,3.55771525 57.0522847,3.11 56.5,3.11 L54.82,3.11 C54.6529136,3.11 54.4926706,3.04362519 54.3745227,2.92547727 C54.2563748,2.80732935 54.19,2.64708639 54.19,2.48 L54.19,2.48 Z" id="Path" fill="#D9EBF4" fill-rule="nonzero"></path>
            <path d="M48.11,7.22 L48.11,7.22 C48.107299,7.12280144 48.1440317,7.02864381 48.2118397,6.95895219 C48.2796478,6.88926057 48.3727639,6.84996248 48.47,6.84999997 L50.42,6.84999997 C50.7568937,6.84999997 51.03,7.1231063 51.03,7.46 L51.03,7.46 C51.03,7.7968937 50.7568937,8.07 50.42,8.07 L49.42,8.07 C49.3210412,8.06721075 49.2253009,8.10529639 49.1552986,8.17529864 C49.0852964,8.2453009 49.0472108,8.34104116 49.05,8.44 L49.05,8.44 C49.05,8.64434536 48.8843454,8.81 48.68,8.81 L46.78,8.81 C46.4431063,8.81 46.17,8.5368937 46.17,8.2 L46.17,8.2 C46.17,7.8631063 46.4431063,7.59 46.78,7.59 L47.78,7.59 C47.9709309,7.57412757 48.1159805,7.41149615 48.11,7.22 L48.11,7.22 Z" id="Path" fill="#D9EBF4" fill-rule="nonzero"></path>
            <circle id="Oval" fill="#D9EBF4" fill-rule="nonzero" cx="40.01" cy="9.22" r="1"></circle>
            <circle id="Oval" fill="#D9EBF4" fill-rule="nonzero" cx="53.36" cy="9.42" r="1"></circle>
            <circle id="Oval" fill="#D9EBF4" fill-rule="nonzero" cx="57.54" cy="11.14" r="1.36"></circle>
            <circle id="Oval" fill="#D9EBF4" fill-rule="nonzero" cx="58.36" cy="0.63" r="1"></circle>
            <circle id="Oval" fill="#D9EBF4" fill-rule="nonzero" cx="44.56" cy="11.14" r="1"></circle>
            <circle id="Oval" fill="#D9EBF4" fill-rule="nonzero" cx="48.6" cy="12.82" r="1.41"></circle>
            <circle id="Oval" fill="#D9EBF4" fill-rule="nonzero" cx="43.13" cy="7.34" r="1"></circle>
            <path d="M58.9,57.95 L58.9,30.67 C58.9,30.1784666 58.5015334,29.78 58.01,29.78 L57.08,29.78 C56.5884666,29.78 56.19,30.1784666 56.19,30.67 L56.19,32.94 C56.19,33.4315334 55.7915334,33.83 55.3,33.83 L52.3,33.83 C51.8084666,33.83 51.41,34.2284666 51.41,34.72 L51.41,45.1 C51.41,45.5915334 51.0115334,45.99 50.52,45.99 L48.69,45.99 C48.1984666,45.99 47.8,46.3884666 47.8,46.88 L47.8,53.42 C47.8,53.9115334 47.4015334,54.31 46.91,54.31 L46,54.31 C45.7639573,54.31 45.5375823,54.2162324 45.370675,54.049325 C45.2037676,53.8824177 45.11,53.6560427 45.11,53.42 L45.11,52.28 C45.11,51.7884666 44.7115334,51.39 44.22,51.39 L43.41,51.39 C42.9184666,51.39 42.52,50.9915334 42.52,50.5 L42.52,49 C42.52,48.5084666 42.1215334,48.11 41.63,48.11 L36.85,48.11 C36.3584666,48.11 35.96,47.7115334 35.96,47.22 L35.96,46.31 C35.96,45.8184666 35.5615334,45.42 35.07,45.42 L19.67,45.42 C19.4338204,45.4196418 19.2071833,45.5131746 19.04,45.68 L14.9,49.78 C14.7328167,49.9468254 14.5061796,50.0403582 14.27,50.04 L13,50.04 C12.5084666,50.04 12.11,50.4384666 12.11,50.93 L12.11,53.93 C12.11,54.4215334 11.7115334,54.82 11.22,54.82 L10.71,54.82 C10.2184666,54.82 9.82,54.4215334 9.82,53.93 L9.82,53.41 C9.82,52.9184666 9.42153343,52.52 8.93,52.52 L8.3,52.52 C7.80846657,52.52 7.41,52.1215334 7.41,51.63 C7.41,51.1384666 7.01153343,50.74 6.52,50.74 L1.89,50.74 C1.39846657,50.74 1,51.1384666 1,51.63 L1,57.94 L58.9,57.95 Z" id="Path" fill="#C6E2F4" fill-rule="nonzero"></path>
            <line x1="0.99" y1="57.95" x2="59.01" y2="57.95" id="Path" stroke="#041256" stroke-width="2" stroke-linecap="round" stroke-linejoin="round"></line>
            <path d="M34,0.05 L16,0.05 C14.6279352,0.0717564246 13.3184656,0.627832525 12.35,1.6 L2.53,11.41 C1.54577953,12.4014011 0.995462859,13.7430228 0.999972166,15.14 L0.999972166,47.33 C1.01648182,50.4624041 3.55755724,52.9945478 6.69,53 L34,53 C37.1480231,53 39.7000088,50.4480231 39.7000088,47.3 L39.7000088,5.76 C39.7026552,4.24653413 39.1032936,2.79414648 38.0340483,1.72302533 C36.964803,0.651904179 35.5134682,0.05 34,0.05 Z" id="Path" fill="#D9EBF4" fill-rule="nonzero"></path>
            <path d="M34.14,0.06 C36.3933581,0.875622591 37.89592,3.01357638 37.9,5.41 L37.9,47 C37.9,48.511734 37.299466,49.9615513 36.2305087,51.0305087 C35.1615513,52.099466 33.711734,52.7 32.2,52.7 L4.74,52.7 C5.36752277,52.9129871 6.02747638,53.0145184 6.69,53 L34,53 C37.1480231,53 39.7000003,50.4480231 39.7000003,47.3 L39.7000003,5.76 C39.7009334,2.66584965 37.2332171,0.135996538 34.14,0.06 Z" id="Path" fill="#FFFFFF" fill-rule="nonzero"></path>
            <path d="M8.61,14.74 C12.5146532,14.74 15.68,11.5746532 15.68,7.67 L15.68,0.09 C15.1005821,0.135856862 14.5328308,0.277794682 14,0.51 C13.94,0.56 13.87,0.61 13.81,0.66 L1.6,12.83 C1.54,12.89 1.5,12.96 1.45,13.02 C1.20312118,13.5635151 1.05093106,14.1452195 1,14.74 L8.61,14.74 Z" id="Path" fill="#B9DCEA" fill-rule="nonzero"></path>
            <path d="M28.69,43.21 L28.69,43.21 C19.8618275,34.3892733 14.9041682,22.4196561 14.91,9.94 L14.91,3.63 L9,4.94 L2.53,11.41 C1.54577953,12.4014011 0.995462859,13.7430228 0.999972166,15.14 L0.999972166,47.33 C1.01648182,50.4624041 3.55755724,52.9945478 6.69,53 L34,53 C36.9726604,52.9988479 39.4453165,50.7133824 39.68,47.75 C35.5613874,47.7447483 31.6115245,46.1130487 28.69,43.21 Z" id="Path" fill="#B9DCEA" fill-rule="nonzero"></path>
            <path d="M35.16,52.92 C35.4842523,52.8546548 35.8021399,52.7609616 36.11,52.64 L36.2,52.64 C36.4952484,52.5175958 36.7795981,52.370403 37.05,52.2 L37.13,52.15 C37.3956463,51.9777922 37.6465108,51.7837903 37.88,51.57 L37.95,51.51 C38.1831653,51.2883901 38.397255,51.0475391 38.59,50.79 L38.59,50.73 C38.7873173,50.4655771 38.9613039,50.1845217 39.11,49.89 L39.11,49.89 C39.2610454,49.5686736 39.3815748,49.2338697 39.47,48.89 L39.47,48.89 C39.5660839,48.5467243 39.6296969,48.1951789 39.66,47.84 L39.66,47.84 C39.0346224,47.8342382 38.4101592,47.7908263 37.79,47.71 C37.4364969,50.5667403 35.0085287,52.7115886 32.13,52.71 L4.74,52.71 C5.04258881,52.8187943 5.35364609,52.9024119 5.67,52.96 L5.72,52.96 C6.04992209,53.0202063 6.38462966,53.0503299 6.72,53.0500027 L34,53.0500027 C34.3523329,53.0490762 34.7038268,53.0156005 35.05,52.95 L35.16,52.92 Z" id="Path" fill="#D9EBF4" fill-rule="nonzero"></path>
            <path d="M14.93,10.83 C14.93,10.54 14.93,10.24 14.93,9.95 L14.93,3.63 L9.62,4.8 L1.62,12.8 C1.56,12.86 1.52,12.93 1.47,12.99 L1.47,12.99 C1.3615014,13.2422062 1.27452485,13.5031359 1.21,13.77 L1.21,13.84 C1.14416272,14.1261884 1.10069816,14.4170667 1.08,14.71 L8.66,14.71 C11.3130069,14.6974831 13.7350358,13.1986838 14.93,10.83 L14.93,10.83 Z" id="Path" fill="#8DB9D3" fill-rule="nonzero"></path>
            <path d="M35.93,51.24 L7.46,51.24 C4.925013,51.24 2.87,49.184987 2.87,46.65 L2.87,13.35 C2.87076838,11.9550538 3.42456357,10.6173148 4.41,9.63 L9.12,4.92 L9,4.92 L2.53,11.41 C1.54577953,12.4014011 0.995462859,13.7430228 0.999972166,15.14 L0.999972166,47.33 C1.01648182,50.4624041 3.55755724,52.9945478 6.69,53 L34,53 C35.9142131,52.9952596 37.6968072,52.0249869 38.74,50.42 C37.8916321,50.9354385 36.9224376,51.2182639 35.93,51.24 Z" id="Path" fill="#65CEB5" fill-rule="nonzero"></path>
            <path d="M8.19,13 C11.3380231,13 13.89,10.4480231 13.89,7.3 L13.89,0.05 L1,13 L8.19,13 Z" id="Path" fill="#D9EBF4" fill-rule="nonzero"></path>
            <path d="M13.89,0.54 C13.3173826,0.798351543 12.7957807,1.15737623 12.35,1.6 L2.53,11.41 C2.08594675,11.8715179 1.73008701,12.4103912 1.48,13 L8.19,13 C11.3380231,13 13.89,10.4480231 13.89,7.3 L13.89,0.54 Z" id="Path" fill="#C95584" fill-rule="nonzero"></path>
            <path d="M5.67,8.27 L2.53,11.41 C2.08594675,11.8715179 1.73008701,12.4103912 1.48,13 L4.33,13 L6.61,10.72 C6.81521118,10.5306844 6.93193289,10.2641989 6.93193289,9.985 C6.93193289,9.70580111 6.81521118,9.43931558 6.61,9.25 L5.67,8.27 Z" id="Path" fill="#E279A8" fill-rule="nonzero"></path>
            <path d="M12.35,1.6 L6.52,7.42 L7.46,8.36 C7.64931558,8.56521118 7.91580111,8.68193289 8.195,8.68193289 C8.47419889,8.68193289 8.74068442,8.56521118 8.93,8.36 L13.93,3.36 L13.93,0.54 C13.3431696,0.794154338 12.8077116,1.15338566 12.35,1.6 L12.35,1.6 Z" id="Path" fill="#E279A8" fill-rule="nonzero"></path>
            <path d="M34,0.05 L16,0.05 C14.6279352,0.0717564246 13.3184656,0.627832525 12.35,1.6 L2.53,11.41 C1.54577953,12.4014011 0.995462859,13.7430228 0.999972166,15.14 L0.999972166,47.33 C1.01648182,50.4624041 3.55755724,52.9945478 6.69,53 L34,53 C37.1480231,53 39.7000088,50.4480231 39.7000088,47.3 L39.7000088,5.76 C39.7026552,4.24653413 39.1032936,2.79414648 38.0340483,1.72302533 C36.964803,0.651904179 35.5134682,0.05 34,0.05 Z" id="Path" stroke="#041256" stroke-width="2" stroke-linecap="round" stroke-linejoin="round"></path>
            <path d="M13.89,0.54 C13.3173826,0.798351543 12.7957807,1.15737623 12.35,1.6 L2.53,11.41 C2.08594675,11.8715179 1.73008701,12.4103912 1.48,13 L8.19,13 C11.3380231,13 13.89,10.4480231 13.89,7.3 L13.89,0.54 Z" id="Path" stroke="#041256" stroke-width="2" stroke-linecap="round" stroke-linejoin="round"></path>
            <rect id="Rectangle" fill="#FFFFFF" fill-rule="nonzero" x="42.68" y="44.23" width="3.06" height="2.24"></rect>
            <path d="M53.6099994,5.56 L53.6099994,40.14 C53.6103719,40.8694428 53.7816131,41.588656 54.1099994,42.24 L55.49,45 C55.6437175,45.3094742 55.9594521,45.5051852 56.305,45.5051852 C56.6505479,45.5051852 56.9662825,45.3094742 57.12,45 L58.51,42.24 C58.8383869,41.588656 59.0096281,40.8694428 59.0100006,40.14 L59.0100006,5.56 C59.0106189,4.59476439 58.4959188,3.70261771 57.66,3.22 L57.66,3.22 C56.8246171,2.73769145 55.7953829,2.73769145 54.96,3.22 L54.96,3.22 C54.1240812,3.70261771 53.6093811,4.59476439 53.6099994,5.56 Z" id="Path" fill="#97A4CE" fill-rule="nonzero"></path>
            <path d="M59,40.14 L59,5.64 C59.0112335,4.92719388 58.7501546,4.23694431 58.27,3.71 C57.6625627,3.06410269 56.7767187,2.75760815 55.9,2.89 L56.66,3.4 C56.8053677,3.50105851 56.9252,3.63458586 57.01,3.79 L57.01,3.79 C57.5727296,4.79892856 57.8687319,5.93475117 57.87,7.09 L57.87,39.68 C57.87,40.1442494 57.7456958,40.6000313 57.51,41 L57.51,41 C57.2690726,41.4018927 57.1412326,41.8614253 57.14,42.33 L57.14,44.56 L57.33,44.56 L58.51,42.21 C58.8303999,41.5668825 58.998083,40.8585072 59,40.14 Z" id="Path" fill="#7B90C6" fill-rule="nonzero"></path>
            <path d="M57.14,44.58 L55.75,41.82 C55.4216131,41.168656 55.2503719,40.4494428 55.25,39.72 L55.25,5.14 C55.2525955,4.2197566 55.7237153,3.3642031 56.5,2.87 C55.7509365,2.81134039 55.0114776,3.0686363 54.4606177,3.57960639 C53.9097577,4.09057648 53.5977067,4.80864665 53.5999874,5.56 L53.5999874,40.14 C53.6003719,40.8694428 53.7716131,41.588656 54.1,42.24 L55.49,45 C55.6437175,45.3094742 55.9594521,45.5051852 56.305,45.5051852 C56.6505479,45.5051852 56.9662825,45.3094742 57.12,45 L57.25,44.74 C57.2077322,44.6907422 57.1708556,44.6371037 57.14,44.58 L57.14,44.58 Z" id="Path" fill="#B5C5E8" fill-rule="nonzero"></path>
            <path d="M56.37,44.84 L55,42.08 C54.6716131,41.428656 54.5003719,40.7094428 54.5,39.98 L54.5,5.4 C54.4993811,4.43476439 55.0140812,3.54261771 55.85,3.06 C55.984169,2.98449574 56.1247087,2.92091825 56.27,2.87 C55.8138842,2.87370833 55.3663233,2.9942055 54.97,3.22 C54.1340812,3.70261771 53.6193811,4.59476439 53.6199994,5.56 L53.6199994,40.14 C53.6203719,40.8694428 53.7916131,41.588656 54.1199994,42.24 L55.49,45 C55.6150774,45.2461352 55.8451349,45.422176 56.1154076,45.4785638 C56.3856802,45.5349516 56.6669372,45.465588 56.88,45.29 C56.6571281,45.2134351 56.4737196,45.0516041 56.37,44.84 L56.37,44.84 Z" id="Path" fill="#D2E0F9" fill-rule="nonzero"></path>
            <path d="M53.6099994,5.56 L53.6099994,40.14 C53.6103719,40.8694428 53.7816131,41.588656 54.1099994,42.24 L55.49,45 C55.6437175,45.3094742 55.9594521,45.5051852 56.305,45.5051852 C56.6505479,45.5051852 56.9662825,45.3094742 57.12,45 L58.51,42.24 C58.8383869,41.588656 59.0096281,40.8694428 59.0100006,40.14 L59.0100006,5.56 C59.0106189,4.59476439 58.4959188,3.70261771 57.66,3.22 L57.66,3.22 C56.8246171,2.73769145 55.7953829,2.73769145 54.96,3.22 L54.96,3.22 C54.1240812,3.70261771 53.6093811,4.59476439 53.6099994,5.56 Z" id="Path" stroke="#041256" stroke-width="2" stroke-linecap="round" stroke-linejoin="round"></path>
            <path d="M57.68,44.1 C57.3319061,43.9518346 56.9701948,43.8379626 56.6,43.76 C56.2159923,43.6955531 55.8287474,43.6521549 55.44,43.63 C55.8286105,43.5283181 56.2225448,43.4481959 56.62,43.39 C57.0323559,43.3498008 57.4476441,43.3498008 57.86,43.39 L57.86,43.39 C58.0698682,43.4065685 58.2265685,43.5901318 58.21,43.8 C58.1934315,44.0098682 58.0098682,44.1665685 57.8,44.15 L57.68,44.1 Z" id="Path" fill="#041256" fill-rule="nonzero"></path>
            <path d="M58.93,8 C58.2238718,7.76811412 57.4972548,7.6040393 56.76,7.51 C56.0052669,7.44342859 55.247547,7.41672481 54.49,7.43 C55.2443492,7.29316202 56.0054145,7.19635986 56.77,7.14 C57.549033,7.10921031 58.3292273,7.15274047 59.1,7.27 C59.257453,7.25237272 59.4093193,7.33428632 59.4810735,7.47554325 C59.5528276,7.61680017 59.5294094,7.78775283 59.422311,7.90450941 C59.3152125,8.02126599 59.1469121,8.05932114 59,8 L58.93,8 Z" id="Path" fill="#041256" fill-rule="nonzero"></path>
            <path d="M11.23,45.35 L11.23,45.35 C10.975997,45.3464241 10.7328751,45.2463151 10.55,45.07 L8.93,43.45 C8.71287635,43.0596508 8.7809562,42.5726446 9.09680041,42.2568004 C9.41264463,41.9409562 9.89965085,41.8728764 10.29,42.09 L11.23,43.03 L14,40.26 C14.3903492,40.0428764 14.8773554,40.1109562 15.1931996,40.4268004 C15.5090438,40.7426446 15.5771236,41.2296508 15.36,41.62 L11.92,45.06 C11.7362113,45.2423408 11.4888682,45.3462966 11.23,45.35 Z" id="Path" fill="#80A0C1" fill-rule="nonzero"></path>
            <path d="M10.61,45.35 L10.61,45.35 C10.3358272,45.3543149 10.0719108,45.2458561 9.88,45.05 L8.16,43.32 C7.90098245,43.0609824 7.79982458,42.6834561 7.89463158,42.3296316 C7.98943859,41.975807 8.26580703,41.6994386 8.61963158,41.6046316 C8.97345614,41.5098246 9.35098245,41.6109824 9.61,41.87 L10.61,42.87 L13.55,39.93 C13.9504064,39.5295936 14.5995935,39.5295936 15,39.93 C15.4004064,40.3304065 15.4004064,40.9795936 15,41.38 L11.33,45.05 C11.1405017,45.2433362 10.8807138,45.3515811 10.61,45.35 Z" id="Path" fill="#C95584" fill-rule="nonzero"></path>
            <line x1="18.38" y1="41.44" x2="32.88" y2="41.44" id="Path" stroke="#80A0C1" stroke-linecap="round"></line>
            <line x1="18.38" y1="44.23" x2="26.75" y2="44.23" id="Path" stroke="#80A0C1" stroke-linecap="round"></line>
            <line x1="29.42" y1="44.23" x2="29.8" y2="44.23" id="Path" stroke="#80A0C1" stroke-linecap="round"></line>
            <path d="M11.23,35.5 L11.23,35.5 C10.975997,35.4964241 10.7328751,35.3963151 10.55,35.22 L8.93,33.6 C8.55919491,33.3937473 8.3589212,32.9759423 8.43037375,32.5576946 C8.5018263,32.139447 8.82944697,31.8118263 9.24769464,31.7403738 C9.6659423,31.6689212 10.0837473,31.8691949 10.29,32.24 L11.23,33.18 L14,30.41 C14.2062527,30.0391949 14.6240577,29.8389212 15.0423054,29.9103738 C15.460553,29.9818263 15.7881737,30.309447 15.8596262,30.7276946 C15.9310788,31.1459423 15.7308051,31.5637473 15.36,31.77 L11.92,35.21 C11.7362113,35.3923408 11.4888682,35.4962966 11.23,35.5 Z" id="Path" fill="#80A0C1" fill-rule="nonzero"></path>
            <path d="M10.61,35.5 L10.61,35.5 C10.3358272,35.5043149 10.0719108,35.3958561 9.88,35.2 L8.16,33.47 C7.75407071,33.0695936 7.74959356,32.4159293 8.15,32.01 C8.55040644,31.6040707 9.20407071,31.5995936 9.61,32 L10.61,33 L13.55,30.06 C13.8125902,29.8009824 14.1934178,29.7017306 14.5490287,29.7996316 C14.9046396,29.8975326 15.181008,30.177713 15.2740287,30.5346316 C15.3670493,30.8915502 15.2625902,31.2709824 15,31.53 L11.34,35.2 C11.1480892,35.3958561 10.8841728,35.5043149 10.61,35.5 Z" id="Path" fill="#C95584" fill-rule="nonzero"></path>
            <line x1="18.38" y1="31.59" x2="32.88" y2="31.59" id="Path" stroke="#80A0C1" stroke-linecap="round"></line>
            <line x1="18.38" y1="34.39" x2="26.75" y2="34.39" id="Path" stroke="#80A0C1" stroke-linecap="round"></line>
            <line x1="29.42" y1="34.39" x2="29.8" y2="34.39" id="Path" stroke="#80A0C1" stroke-linecap="round"></line>
            <path d="M11.23,25.66 L11.23,25.66 C10.975997,25.6564241 10.7328751,25.5563151 10.55,25.38 L8.93,23.76 C8.55919491,23.5537473 8.3589212,23.1359423 8.43037375,22.7176946 C8.5018263,22.299447 8.82944697,21.9718263 9.24769464,21.9003738 C9.6659423,21.8289212 10.0837473,22.0291949 10.29,22.4 L11.23,23.34 L14,20.57 C14.3903492,20.3528764 14.8773554,20.4209562 15.1931996,20.7368004 C15.5090438,21.0526446 15.5771236,21.5396508 15.36,21.93 L11.92,25.37 C11.7362113,25.5523408 11.4888682,25.6562966 11.23,25.66 Z" id="Path" fill="#80A0C1" fill-rule="nonzero"></path>
            <path d="M10.61,25.66 L10.61,25.66 C10.3358272,25.6643149 10.0719108,25.5558561 9.88,25.36 L8.16,23.64 C7.90098244,23.3809824 7.79982457,23.0034561 7.89463157,22.6496316 C7.98943857,22.295807 8.26580702,22.0194386 8.61963158,21.9246316 C8.97345614,21.8298246 9.35098245,21.9309824 9.61,22.19 L10.61,23.19 L13.55,20.25 C13.9448836,19.8495936 14.5895936,19.8451164 14.99,20.24 C15.3904064,20.6348836 15.3948836,21.2795936 15,21.68 L11.33,25.35 C11.1421912,25.5470153 10.8821876,25.6589612 10.61,25.66 Z" id="Path" fill="#C95584" fill-rule="nonzero"></path>
            <line x1="18.38" y1="21.75" x2="32.88" y2="21.75" id="Path" stroke="#80A0C1" stroke-linecap="round"></line>
            <line x1="18.38" y1="24.54" x2="26.75" y2="24.54" id="Path" stroke="#80A0C1" stroke-linecap="round"></line>
            <line x1="29.42" y1="24.54" x2="29.8" y2="24.54" id="Path" stroke="#80A0C1" stroke-linecap="round"></line>
        </g>
    </g>
</svg>