<svg id="Layer_1" data-name="Layer 1" xmlns="http://www.w3.org/2000/svg" viewBox="0 0 64 64"><defs><style>.cls-1{fill:#5d86d8;}.cls-2{fill:#77a3e8;}.cls-3{fill:#4a76ce;}.cls-4{fill:#3268bf;}.cls-5{fill:#77bc94;}.cls-6{fill:#8dc9a8;}.cls-7{fill:#66af83;}.cls-8{fill:#a3e2be;}.cls-12,.cls-19,.cls-9{fill:none;}.cls-9{stroke:#a3e2be;stroke-width:0.5px;}.cls-19,.cls-9{stroke-miterlimit:10;}.cls-10{fill:#96b8ea;}.cls-11{fill:#b8f4d0;}.cls-12{stroke:#041256;stroke-linecap:round;stroke-linejoin:round;stroke-width:2px;}.cls-13{fill:#3353bc;}.cls-14{fill:#d85d83;}.cls-15{fill:#c9456a;}.cls-16{fill:#a5355d;}.cls-17{fill:#ce6782;}.cls-18{fill:#ede2c3;}.cls-19{stroke:#fff9e9;stroke-width:0.75px;}.cls-20{fill:#bfcadb;}.cls-21{fill:#dce4ef;}.cls-22{fill:#a5b6ce;}.cls-23{fill:#a1d0ff;}.cls-24{fill:#90a6bf;}.cls-25{fill:#eaaf47;}.cls-26{fill:#f9c573;}.cls-27{fill:#e29139;}.cls-28{fill:#92efcd;}.cls-29{fill:#d17922;}</style></defs><title>travel, holiday, vacation, international, global, location</title><circle class="cls-1" cx="32.01" cy="36.63" r="24.37"/><circle class="cls-1" cx="32.01" cy="38.81" r="21.19"/><path class="cls-2" d="M52.09,22.81l-1.81,1.38a2.3,2.3,0,0,0-.51,3.09l0,0a2.27,2.27,0,0,0,3.28.54l1.28-1A24.33,24.33,0,0,0,52.09,22.81Z"/><path class="cls-2" d="M52.07,32a21.26,21.26,0,1,1-6.85-9.71,2.29,2.29,0,0,0,2.83.05l2.29-1.75A24.34,24.34,0,1,0,54.79,28l-1.95,1.49A2.27,2.27,0,0,0,52.07,32Z"/><circle class="cls-3" cx="32.01" cy="40.25" r="19.75"/><path class="cls-4" d="M50.78,36.82c-.42.33-.85.65-1.3.95a1.68,1.68,0,0,1-2.58-1.09A19.06,19.06,0,0,0,45.59,32a1.61,1.61,0,0,0-.63-.63L41.2,29.25a1.71,1.71,0,0,0-1.33-.17,9.5,9.5,0,0,1-.94.23,1.68,1.68,0,0,0-1.33,2c.19.94.41,2.18.61,3.53a1.68,1.68,0,0,0,2,1.41l.07,0a1.68,1.68,0,0,1,2.07,1.41,58,58,0,0,1,.4,11.95,1.69,1.69,0,0,0,.79,1.6l4.17,2.56a1.65,1.65,0,0,1,.48.47,19.68,19.68,0,0,0,2.55-17.37Z"/><path class="cls-4" d="M32.46,51.35h0a1.32,1.32,0,0,0,2.4-.32,25.55,25.55,0,0,0,.83-6.75,27.88,27.88,0,0,0-.45-5.13,1.46,1.46,0,0,0-2-1.06l-.06,0a17.07,17.07,0,0,1-3.19.94,1.44,1.44,0,0,0-1.15,1.24,29.26,29.26,0,0,0-.27,4A27.77,27.77,0,0,0,29,49.49a1.33,1.33,0,0,0,1.14,1.08l1.31.15A1.32,1.32,0,0,1,32.46,51.35Z"/><path class="cls-4" d="M13,42.12c0,4.67.87,9.56,3.58,12.94l4.19-3.37a3.76,3.76,0,0,0,1.39-3.4,19.06,19.06,0,0,1,.22-6.78,3.87,3.87,0,0,0-.66-3.23l-.35-.47a3.78,3.78,0,0,1-.5-3.72,40.18,40.18,0,0,1,2.9-5.75,3.79,3.79,0,0,0,.37-3.23l-.22-.63A19.73,19.73,0,0,0,13,42.12Z"/><path class="cls-5" d="M47.94,55.06A24.39,24.39,0,0,0,55.3,29.42a24.79,24.79,0,0,1-5.82,5.65A1.68,1.68,0,0,1,46.9,34a19.06,19.06,0,0,0-1.3-4.63,1.61,1.61,0,0,0-.63-.63L41.2,26.56a1.71,1.71,0,0,0-1.33-.17,9.5,9.5,0,0,1-.94.23,1.68,1.68,0,0,0-1.33,2c.19.94.41,2.18.61,3.53a1.68,1.68,0,0,0,2,1.41l.07,0a1.68,1.68,0,0,1,2.07,1.41,58,58,0,0,1,.4,11.95,1.69,1.69,0,0,0,.79,1.6L47.75,51a1.68,1.68,0,0,1,.75,1.84Z"/><path class="cls-6" d="M56.32,34.84c0-.14,0-.28,0-.43,0-.41-.08-.82-.14-1.23,0-.21-.07-.43-.1-.64s-.12-.66-.19-1-.1-.46-.15-.68-.16-.63-.25-.94-.09-.35-.15-.52a28.45,28.45,0,0,1-3,3.36,21.23,21.23,0,0,1,.8,7.86,20.94,20.94,0,0,1-4.64,11.4,1.65,1.65,0,0,1,0,.82L48,55a24.6,24.6,0,0,0,5.79-7.37l.11-.22c.28-.57.55-1.15.78-1.74l.08-.22c.2-.5.37-1,.54-1.53,0-.16.1-.31.15-.47q.24-.83.42-1.67c0-.18.07-.36.1-.53.1-.54.19-1.09.26-1.64,0-.08,0-.15,0-.23q.08-.71.12-1.42c0-.14,0-.28,0-.42,0-.33,0-.67,0-1Q56.38,35.68,56.32,34.84Z"/><path class="cls-7" d="M50.78,34.13c-.42.33-.85.65-1.3.95A1.68,1.68,0,0,1,46.9,34a19.06,19.06,0,0,0-1.3-4.63,1.61,1.61,0,0,0-.63-.63L41.2,26.56a1.71,1.71,0,0,0-1.33-.17,9.5,9.5,0,0,1-.94.23,1.68,1.68,0,0,0-1.33,2c.19.94.41,2.18.61,3.53a1.68,1.68,0,0,0,2,1.41l.07,0a1.68,1.68,0,0,1,2.07,1.41,58,58,0,0,1,.4,11.95,1.69,1.69,0,0,0,.79,1.6L47.75,51a1.65,1.65,0,0,1,.48.47,19.68,19.68,0,0,0,2.55-17.37Z"/><path class="cls-7" d="M32.34,49.62h0a1.32,1.32,0,0,0,2.4-.32,25.55,25.55,0,0,0,.83-6.75,27.88,27.88,0,0,0-.45-5.13,1.46,1.46,0,0,0-2-1.06l-.06,0a17.07,17.07,0,0,1-3.19.94,1.44,1.44,0,0,0-1.15,1.24,29.26,29.26,0,0,0-.27,4,27.77,27.77,0,0,0,.47,5.21,1.33,1.33,0,0,0,1.14,1.08l1.31.15A1.32,1.32,0,0,1,32.34,49.62Z"/><path class="cls-5" d="M7.64,36.63A24.3,24.3,0,0,0,14.89,54L20,49.82a3.76,3.76,0,0,0,1.39-3.4,19.06,19.06,0,0,1,.22-6.78A3.87,3.87,0,0,0,21,36.4l-.35-.47a3.78,3.78,0,0,1-.5-3.72A40.18,40.18,0,0,1,23,26.47a3.79,3.79,0,0,0,.37-3.23L20.57,15.1A24.37,24.37,0,0,0,7.64,36.63Z"/><path class="cls-7" d="M12.26,40.25A19.66,19.66,0,0,0,16.6,52.59L20,49.82a3.76,3.76,0,0,0,1.39-3.4,19.06,19.06,0,0,1,.22-6.78A3.87,3.87,0,0,0,21,36.4l-.35-.47a3.78,3.78,0,0,1-.5-3.72A40.18,40.18,0,0,1,23,26.47a3.79,3.79,0,0,0,.37-3.23l-.22-.63A19.73,19.73,0,0,0,12.26,40.25Z"/><path class="cls-5" d="M17.93,51.51a21.14,21.14,0,0,1-2.35-9.58,27.61,27.61,0,0,0,5.67,2.58c0-.35,0-.7,0-1a25.88,25.88,0,0,1-5.66-2.7c.09-7.23,2.73-15.28,6.78-20.57l-.4-1.14c-4.3,5.28-7.13,13.42-7.37,21a14.15,14.15,0,0,1-5.84-8.28A23,23,0,0,1,21.07,16.55l-.32-.91a24.51,24.51,0,0,0-8.83,7.21,24.21,24.21,0,0,0-4,9.89,15.77,15.77,0,0,0,6.6,8.54,22.14,22.14,0,0,0,2.55,10.91Z"/><path class="cls-6" d="M14.89,54l1.31-1.06A21.15,21.15,0,0,1,22.28,20l-1.7-4.88A24.69,24.69,0,0,0,10,26.07l-.06.12q-.44.92-.8,1.88l0,.08c-.24.63-.44,1.28-.63,1.94,0,.16-.08.33-.12.5q-.18.71-.32,1.43-.07.36-.13.71c-.08.48-.14,1-.19,1.46,0,.2,0,.39-.06.59s0,.28,0,.42c0,.39,0,.78,0,1.17q0,.34,0,.67c0,.19,0,.39,0,.58s0,.5,0,.75,0,.38,0,.57.05.5.08.74,0,.37.07.55.08.5.13.75.06.35.09.52.12.52.18.78.07.31.11.46q.16.6.34,1.19c.06.18.12.36.18.54s.14.43.22.64.16.41.25.62.14.36.22.54.19.42.29.63l.23.49.33.63.25.46.37.63.26.42.4.62.27.39.44.62.27.36.49.61.26.31.54.61.25.26.6.62Z"/><path class="cls-2" d="M56.28,31.7A24.47,24.47,0,0,0,34.42,13.16a36.43,36.43,0,0,0-4.84,0A24.47,24.47,0,0,0,7.74,31.7l0,.1,0,.1c.72,3.65,3.21,6.9,6.82,9.38.05,14,9,19,17.45,19s17.39-5,17.45-19c3.61-2.48,6.1-5.73,6.82-9.38l0-.1ZM32,59.35c-2.47,0-5.29-3.67-6-13.63a34.71,34.71,0,0,0,11.91,0C37.3,55.68,34.48,59.35,32,59.35Zm0-14.07a34.48,34.48,0,0,1-6-.53c-.06-1.13-.1-2.32-.1-3.61,0-13,3.13-26.81,6.1-26.81s6.1,13.78,6.1,26.81c0,1.29,0,2.47-.1,3.61A34.48,34.48,0,0,1,32,45.28Zm-2-30.7c-3.19,4-5.09,16.86-5.09,26.57,0,1.19,0,2.31.08,3.41a27.72,27.72,0,0,1-9.43-3.77C15.7,29.62,21.93,16.5,30,14.58Zm4,0c8.07,1.92,14.3,15,14.44,26.2A27.72,27.72,0,0,1,39,44.55c.05-1.09.08-2.22.08-3.41C39.11,31.44,37.22,18.53,34,14.58ZM8.74,31.81A23.37,23.37,0,0,1,27.55,14.42c-7.34,3.49-12.64,15.12-13,25.68A14.15,14.15,0,0,1,8.74,31.81Zm6.85,10.12A29.28,29.28,0,0,0,25,45.54c.43,6.81,1.88,11.54,4.14,13.6C20.94,58,15.85,51.63,15.58,41.93ZM34.83,59.14c2.26-2.06,3.72-6.79,4.14-13.6a29.28,29.28,0,0,0,9.46-3.61C48.17,51.63,43.08,58,34.83,59.14Zm14.61-19c-.33-10.55-5.63-22.18-13-25.67A23.37,23.37,0,0,1,55.28,31.81,14.15,14.15,0,0,1,49.45,40.09Z"/><path class="cls-8" d="M56.07,32.72a24.26,24.26,0,0,0-.76-3.3l-.51.65c.18.57.35,1.14.49,1.73a14.15,14.15,0,0,1-5.84,8.28,36.71,36.71,0,0,0-.49-4.8,1.69,1.69,0,0,1-1-.06,34.69,34.69,0,0,1,.53,5.55,25.79,25.79,0,0,1-5.52,2.65c0,.34,0,.68,0,1a27.54,27.54,0,0,0,5.52-2.53,22,22,0,0,1-1.79,8.43l.9.55a23.18,23.18,0,0,0,1.91-9.64A15.77,15.77,0,0,0,56.07,32.72Z"/><path class="cls-8" d="M38.2,32.12a1.69,1.69,0,0,0,.53,1c-.18-2-.43-4-.73-6a1.67,1.67,0,0,0-.41,1.44C37.78,29.54,38,30.77,38.2,32.12Z"/><path class="cls-1" d="M14.56,41.27c0,6.92,2.23,11.64,5.46,14.65a19.65,19.65,0,0,0,24,0c3.23-3,5.43-7.73,5.46-14.65a20.78,20.78,0,0,0,2.26-1.8c0-.43,0-.86-.07-1.28a18.84,18.84,0,0,1-2.21,1.9A39,39,0,0,0,46.65,27a19.84,19.84,0,0,0-2-1.93,38,38,0,0,1,3.8,15.69A27.72,27.72,0,0,1,39,44.55c.05-1.09.08-2.22.08-3.41a86.14,86.14,0,0,0-2.35-20c-.36-.09-.72-.18-1.09-.25a83.16,83.16,0,0,1,2.44,20.29c0,1.29,0,2.47-.1,3.61a34.27,34.27,0,0,1-12,0c-.06-1.13-.1-2.32-.1-3.61a83.16,83.16,0,0,1,2.44-20.29c-.37.07-.73.16-1.09.25a86.14,86.14,0,0,0-2.35,20c0,1.19,0,2.31.08,3.41a27.72,27.72,0,0,1-9.43-3.77,38,38,0,0,1,3.8-15.69,19.85,19.85,0,0,0-2,1.93,39,39,0,0,0-2.8,13.07,18.84,18.84,0,0,1-2.21-1.9c0,.42-.05.85-.07,1.28A20.78,20.78,0,0,0,14.56,41.27ZM39,45.54a29.28,29.28,0,0,0,9.46-3.61c-.26,9.7-5.35,16-13.6,17.21C37.09,57.08,38.55,52.35,39,45.54Zm-7,.7a35.34,35.34,0,0,0,6-.51c-.66,10-3.49,13.63-6,13.63s-5.29-3.67-6-13.63A35.34,35.34,0,0,0,32,46.24Zm-7-.7c.43,6.81,1.88,11.54,4.14,13.6C20.94,58,15.85,51.63,15.58,41.93A29.28,29.28,0,0,0,25,45.54Z"/><path class="cls-6" d="M38.2,32.12a1.69,1.69,0,0,0,.53,1c-.18-2-.43-4-.74-6a1.67,1.67,0,0,0-.4,1.43C37.78,29.54,38,30.77,38.2,32.12Z"/><path class="cls-6" d="M47.54,50.91a23.12,23.12,0,0,0,1.92-9.64,20.78,20.78,0,0,0,2.26-1.8c0-.36,0-.72-.06-1.07,0-.06,0-.13,0-.19a18.85,18.85,0,0,1-2.19,1.89,36.37,36.37,0,0,0-.48-4.8,1.69,1.69,0,0,1-1-.06,34.69,34.69,0,0,1,.54,5.55,25.79,25.79,0,0,1-5.52,2.65c0,.34,0,.68,0,1a27.54,27.54,0,0,0,5.52-2.53,22,22,0,0,1-1.79,8.43Z"/><path class="cls-9" d="M47.94,55.06A24.39,24.39,0,0,0,55.3,29.42a24.79,24.79,0,0,1-5.82,5.65A1.68,1.68,0,0,1,46.9,34a19.06,19.06,0,0,0-1.3-4.63,1.61,1.61,0,0,0-.63-.63L41.2,26.56a1.71,1.71,0,0,0-1.33-.17,9.5,9.5,0,0,1-.94.23,1.68,1.68,0,0,0-1.33,2c.19.94.41,2.18.61,3.53a1.68,1.68,0,0,0,2,1.41l.07,0a1.68,1.68,0,0,1,2.07,1.41,58,58,0,0,1,.4,11.95,1.69,1.69,0,0,0,.79,1.6L47.75,51a1.68,1.68,0,0,1,.75,1.84Z"/><path class="cls-6" d="M28.56,45.1c0,.33.06.65.1,1,1.1.11,2.21.17,3.35.17s2.26-.06,3.35-.17c0-.31.06-.64.09-1a32.91,32.91,0,0,1-6.9,0Z"/><path class="cls-9" d="M32.34,49.62h0a1.32,1.32,0,0,0,2.4-.32,25.55,25.55,0,0,0,.83-6.75,27.88,27.88,0,0,0-.45-5.13,1.46,1.46,0,0,0-2-1.06l-.06,0a17.07,17.07,0,0,1-3.19.94,1.44,1.44,0,0,0-1.15,1.24,29.26,29.26,0,0,0-.27,4,27.77,27.77,0,0,0,.47,5.21,1.33,1.33,0,0,0,1.14,1.08l1.31.15A1.32,1.32,0,0,1,32.34,49.62Z"/><path class="cls-8" d="M17.93,51.51a21.14,21.14,0,0,1-2.35-9.58,27.61,27.61,0,0,0,5.67,2.58c0-.35,0-.7,0-1a25.88,25.88,0,0,1-5.66-2.7c.09-7.23,2.73-15.28,6.78-20.57l-.4-1.14c-4.3,5.28-7.13,13.42-7.37,21a14.15,14.15,0,0,1-5.84-8.28A23,23,0,0,1,21.07,16.55l-.32-.91a24.51,24.51,0,0,0-8.83,7.21,24.21,24.21,0,0,0-4,9.89,15.77,15.77,0,0,0,6.6,8.54,22.14,22.14,0,0,0,2.55,10.91Z"/><path class="cls-6" d="M17.37,27a38.89,38.89,0,0,0-2.8,13.07,18.84,18.84,0,0,1-2.2-1.89q-.06.63-.09,1.26a20.58,20.58,0,0,0,2.27,1.8,22.14,22.14,0,0,0,2.55,10.91l.83-.67a21.14,21.14,0,0,1-2.35-9.58,27.61,27.61,0,0,0,5.67,2.58c0-.35,0-.7,0-1a25.88,25.88,0,0,1-5.66-2.7,37.94,37.94,0,0,1,3.79-15.65A19.9,19.9,0,0,0,17.37,27Z"/><path class="cls-10" d="M10.84,38c0-.44,0-.88.09-1.32,0,0,0-.08,0-.11a12,12,0,0,1-2.21-4.73A23.37,23.37,0,0,1,27.55,14.42a18.5,18.5,0,0,0-7.1,6.67,21.17,21.17,0,0,1,2.2-1.28A14,14,0,0,1,30,14.58,12.54,12.54,0,0,0,28.23,18c.36-.07.73-.12,1.1-.17.85-2.17,1.77-3.47,2.68-3.47s1.83,1.3,2.68,3.47q.55.07,1.1.17A12.53,12.53,0,0,0,34,14.58a14,14,0,0,1,7.36,5.25,21.2,21.2,0,0,1,2.17,1.24,18.48,18.48,0,0,0-7.08-6.64,24.06,24.06,0,0,1,13,6.85l.79-.6a25.19,25.19,0,0,0-15.81-7.5,36.43,36.43,0,0,0-4.84,0,25,25,0,0,0-17.47,9.43A24.11,24.11,0,0,0,8,32.73,13.59,13.59,0,0,0,10.84,38Z"/><path class="cls-11" d="M21.07,16.55l-.32-.92a24.61,24.61,0,0,0-8.58,6.9l-.08.11-.31.46q-.31.46-.6.94l-.37.63c-.17.3-.33.6-.49.91s-.37.74-.54,1.12-.28.63-.41,1-.23.58-.33.88-.24.7-.34,1.06-.25.87-.36,1.32q-.1.4-.18.81c-.07.33-.14.66-.19,1v0A13.59,13.59,0,0,0,10.84,38v0c0-.43,0-.86.09-1.3l0-.12a12,12,0,0,1-2.21-4.73A23,23,0,0,1,21.07,16.55Z"/><path class="cls-8" d="M21.94,19.06q-.78,1-1.49,2l.29-.18.54-.33c.33-.2.66-.38,1-.56Z"/><path class="cls-9" d="M7.64,36.63A24.3,24.3,0,0,0,14.89,54L20,49.82a3.76,3.76,0,0,0,1.39-3.4,19.06,19.06,0,0,1,.22-6.78A3.87,3.87,0,0,0,21,36.4l-.35-.47a3.78,3.78,0,0,1-.5-3.72A40.18,40.18,0,0,1,23,26.47a3.79,3.79,0,0,0,.37-3.23L20.57,15.1A24.37,24.37,0,0,0,7.64,36.63Z"/><path class="cls-11" d="M54.79,28l-.61.47a22.37,22.37,0,0,1,1.1,3.39,12,12,0,0,1-2.21,4.74q.08.71.1,1.43a13.59,13.59,0,0,0,2.89-5.24A24.31,24.31,0,0,0,54.79,28Z"/><path class="cls-10" d="M32.93,60a21.12,21.12,0,0,1-10.76-2.41A18.2,18.2,0,0,0,32,60.31a18.12,18.12,0,0,0,10.08-2.89A20.9,20.9,0,0,1,32.93,60Z"/><circle class="cls-12" cx="32.01" cy="36.63" r="24.37"/><circle class="cls-7" cx="27.93" cy="31.29" r="0.83"/><circle class="cls-9" cx="27.93" cy="31.29" r="0.83"/><ellipse class="cls-13" cx="32.01" cy="22.81" rx="3.11" ry="0.94"/><path class="cls-14" d="M37.68,13.45l-5.24,8.07a.51.51,0,0,1-.86,0l-5.24-8.07A6.77,6.77,0,0,1,27.23,5h0a6.77,6.77,0,0,1,9.57,0h0A6.77,6.77,0,0,1,37.68,13.45Z"/><path class="cls-15" d="M36.6,13.48,32.36,20a.42.42,0,0,1-.7,0l-4.24-6.53a5.48,5.48,0,0,1,.72-6.86h0a5.48,5.48,0,0,1,7.74,0h0A5.48,5.48,0,0,1,36.6,13.48Z"/><path class="cls-16" d="M32,12.25a24.42,24.42,0,0,0-5.92.73c.09.16.15.32.25.47l5.24,8.07a.51.51,0,0,0,.86,0l5.24-8.07c.1-.15.17-.32.25-.47A24.42,24.42,0,0,0,32,12.25Z"/><path class="cls-17" d="M25.67,12.05a6.71,6.71,0,0,0,.67,1.4l.28.43a23.22,23.22,0,0,1,10.78,0l.28-.43a6.71,6.71,0,0,0,.67-1.4,25.46,25.46,0,0,0-12.69,0Z"/><path class="cls-12" d="M37.68,13.45l-5.24,8.07a.51.51,0,0,1-.86,0l-5.24-8.07A6.77,6.77,0,0,1,27.23,5h0a6.77,6.77,0,0,1,9.57,0h0A6.77,6.77,0,0,1,37.68,13.45Z"/><circle class="cls-18" cx="32.01" cy="9.9" r="1.9"/><circle class="cls-19" cx="32.01" cy="9.9" r="1.9"/><circle class="cls-20" cx="9.31" cy="9.3" r="6.3"/><path class="cls-21" d="M11.88,3.55A6.3,6.3,0,0,1,5.15,14,6.3,6.3,0,1,0,11.88,3.55Z"/><path class="cls-22" d="M3.06,8.53a6.4,6.4,0,0,0,.06,1.95,4.44,4.44,0,0,0,6.21,3.2l.1,0a6.36,6.36,0,0,0,3.5-4.9,6.39,6.39,0,0,0-.07-1.93A4.44,4.44,0,0,0,6.68,3.61l-.08,0A6.36,6.36,0,0,0,3.06,8.53Z"/><path class="cls-23" d="M4.56,11.36A6.25,6.25,0,0,1,8,4.53l.08,0a4.27,4.27,0,0,1,3.36-.12,4.37,4.37,0,0,0-4.8-.76l-.08,0a6.25,6.25,0,0,0-3.48,6.83,4.46,4.46,0,0,0,2.83,3.33A4.38,4.38,0,0,1,4.56,11.36Z"/><circle class="cls-12" cx="9.31" cy="9.3" r="6.3"/><circle class="cls-24" cx="7.34" cy="9.61" r="0.61"/><circle class="cls-24" cx="9.37" cy="8.15" r="0.06"/><circle class="cls-24" cx="9.36" cy="9.53" r="0.23"/><circle class="cls-24" cx="8.85" cy="11.56" r="0.31"/><circle class="cls-24" cx="6.45" cy="11.97" r="0.09"/><circle class="cls-24" cx="11.5" cy="8.83" r="0.17"/><circle class="cls-24" cx="11.21" cy="10.43" r="0.2"/><circle class="cls-24" cx="10.1" cy="6.01" r="0.51"/><circle class="cls-24" cx="7.58" cy="6.75" r="0.24"/><circle class="cls-24" cx="6.4" cy="7.61" r="0.05"/><circle class="cls-24" cx="11.85" cy="7.47" r="0.18"/><circle class="cls-25" cx="54.69" cy="9.3" r="6.3"/><path class="cls-26" d="M52.12,3.55A6.3,6.3,0,0,0,58.85,14,6.3,6.3,0,1,1,52.12,3.55Z"/><path class="cls-27" d="M60.94,8.53a6.41,6.41,0,0,1-.06,1.95,4.44,4.44,0,0,1-6.21,3.2l-.1,0a6.36,6.36,0,0,1-3.5-4.9,6.4,6.4,0,0,1,.07-1.93,4.44,4.44,0,0,1,6.18-3.19l.08,0A6.36,6.36,0,0,1,60.94,8.53Z"/><path class="cls-28" d="M59.44,11.36A6.25,6.25,0,0,0,56,4.53l-.08,0a4.27,4.27,0,0,0-3.36-.12,4.37,4.37,0,0,1,4.8-.76l.08,0a6.25,6.25,0,0,1,3.48,6.83,4.46,4.46,0,0,1-2.83,3.33A4.38,4.38,0,0,0,59.44,11.36Z"/><circle class="cls-12" cx="54.69" cy="9.3" r="6.3"/><circle class="cls-29" cx="56.66" cy="9.61" r="0.61"/><circle class="cls-29" cx="54.63" cy="8.15" r="0.06"/><circle class="cls-29" cx="54.64" cy="9.53" r="0.23"/><circle class="cls-29" cx="55.15" cy="11.56" r="0.31"/><circle class="cls-29" cx="57.55" cy="11.97" r="0.09"/><circle class="cls-29" cx="52.5" cy="8.83" r="0.17"/><circle class="cls-29" cx="52.79" cy="10.43" r="0.2"/><circle class="cls-29" cx="53.9" cy="6.01" r="0.51"/><circle class="cls-29" cx="56.42" cy="6.75" r="0.24"/><circle class="cls-29" cx="57.6" cy="7.61" r="0.05"/><circle class="cls-29" cx="52.15" cy="7.47" r="0.18"/></svg>