<svg id="Layer_1" data-name="Layer 1" xmlns="http://www.w3.org/2000/svg" viewBox="0 0 64 64"><defs><style>.cls-1{fill:#d9ebf4;}.cls-2{fill:#e1eef4;}.cls-22,.cls-3{fill:none;stroke:#041256;stroke-linecap:round;stroke-linejoin:round;}.cls-3{stroke-width:2px;}.cls-4{fill:#b76656;}.cls-5{fill:#c17265;}.cls-6{fill:#041256;}.cls-7{fill:#2f4f8e;}.cls-8{fill:#78f4c7;}.cls-9{fill:#ce7f72;}.cls-10{fill:#a37666;}.cls-11{fill:#c49f86;}.cls-12{fill:#936354;}.cls-13{fill:#b28172;}.cls-14{fill:#847e7c;}.cls-15{fill:#af9f9a;}.cls-16{fill:#727171;}.cls-17{fill:#606060;}.cls-18{fill:#64b9cc;}.cls-19{fill:#142668;}.cls-20{fill:#c18267;}.cls-21{fill:#a8655d;}.cls-23{fill:#dda183;}.cls-24{fill:#d39276;}.cls-25{fill:#e5b498;}.cls-26{fill:#6d534d;}.cls-27{fill:#594845;}</style></defs><title>user, account, avatar, people, group, man, woman</title><path class="cls-1" d="M50.5,35v4.28a1.18,1.18,0,0,1-1.18,1.18H44a1.18,1.18,0,0,0-1.18,1.18v.82a1.18,1.18,0,0,1-1.18,1.18H40a1.18,1.18,0,0,1-1.18-1.18h0a1.18,1.18,0,0,0-1.18-1.18H33.5a.46.46,0,0,1-.46-.46v-3.2a1.18,1.18,0,0,0-1.18-1.18h0A5.88,5.88,0,0,0,26,42.34v1.05a1.18,1.18,0,0,1-1.18,1.18H22.67a1.18,1.18,0,0,1-1.18-1.18V38.24a1.18,1.18,0,0,0-1.18-1.18H14.43a1.18,1.18,0,0,1-1.18-1.18V29.34a1.18,1.18,0,0,0-1.18-1.18h-8a1.18,1.18,0,0,0-1.18,1.18V59.82A1.18,1.18,0,0,0,4.06,61H59.69a1.18,1.18,0,0,0,1.18-1.18V35a1.18,1.18,0,0,0-1.18-1.18h-8A1.18,1.18,0,0,0,50.5,35Z"/><path class="cls-2" d="M51.31,10.43h0a.5.5,0,0,1,.5-.5h2.67a.83.83,0,0,1,.83.83h0a.83.83,0,0,1-.83.83H53.14a.5.5,0,0,0-.5.5h0a.5.5,0,0,1-.5.5H49.47a.83.83,0,0,1-.83-.83h0a.83.83,0,0,1,.83-.83h1.33A.5.5,0,0,0,51.31,10.43Z"/><path class="cls-2" d="M56.14,14.2h0a.29.29,0,0,0-.29-.29H54.3a.48.48,0,0,0-.48.48h0a.48.48,0,0,0,.48.48h.77a.29.29,0,0,1,.29.29h0a.29.29,0,0,0,.29.29h1.55a.48.48,0,0,0,.48-.48h0a.48.48,0,0,0-.48-.48h-.77A.29.29,0,0,1,56.14,14.2Z"/><circle class="cls-2" cx="52.84" cy="22.1" r="0.7"/><circle class="cls-2" cx="51.97" cy="15.95" r="0.67"/><circle class="cls-2" cx="48.64" cy="17.32" r="1.08"/><circle class="cls-2" cx="47.99" cy="8.95" r="0.35"/><circle class="cls-2" cx="58.97" cy="17.32" r="0.43"/><circle class="cls-2" cx="55.75" cy="22.97" r="1.12"/><circle class="cls-2" cx="60.11" cy="14.29" r="0.39"/><path class="cls-2" d="M13.84,7.56h0a.64.64,0,0,0-.64-.64H9.8A1.06,1.06,0,0,0,8.73,8h0A1.06,1.06,0,0,0,9.8,9h1.7a.64.64,0,0,1,.64.64h0a.64.64,0,0,0,.64.64h3.4a1.06,1.06,0,0,0,1.06-1.06h0A1.06,1.06,0,0,0,16.18,8.2h-1.7A.64.64,0,0,1,13.84,7.56Z"/><path class="cls-2" d="M7.68,12.36h0A.37.37,0,0,1,8,12h2a.62.62,0,0,1,.62.62h0a.62.62,0,0,1-.62.62H9a.37.37,0,0,0-.37.37h0a.37.37,0,0,1-.37.37h-2a.62.62,0,0,1-.62-.62h0a.62.62,0,0,1,.62-.62h1A.37.37,0,0,0,7.68,12.36Z"/><circle class="cls-2" cx="11.88" cy="22.44" r="0.89"/><circle class="cls-2" cx="12.99" cy="14.6" r="0.86"/><circle class="cls-2" cx="17.24" cy="16.35" r="1.38"/><circle class="cls-2" cx="18.07" cy="5.68" r="0.45"/><circle class="cls-2" cx="4.07" cy="16.35" r="0.54"/><circle class="cls-2" cx="8.17" cy="23.54" r="1.43"/><circle class="cls-2" cx="6.19" cy="10.92" r="0.49"/><circle class="cls-2" cx="54.5" cy="38.88" r="2.42"/><circle class="cls-2" cx="57.65" cy="31.24" r="1.77"/><line class="cls-3" x1="2.87" y1="61" x2="60.87" y2="61"/><path class="cls-4" d="M48.68,37.27a2.21,2.21,0,0,1-1.61-2.12V31.38H36.68v3.76a2.21,2.21,0,0,1-1.61,2.12c-8.14,2.32-13.93,5.29-13.93,12.29V61H62.61V49.56C62.61,42.56,56.82,39.59,48.68,37.27Z"/><path class="cls-5" d="M50.47,52.28A16.78,16.78,0,0,0,43.1,53a3.64,3.64,0,0,1-2.45,0,16.78,16.78,0,0,0-7.37-.76,2.33,2.33,0,0,0-1.93,2h0a2.33,2.33,0,0,0,2.18,2.65,28.08,28.08,0,0,1,6.51,1,6,6,0,0,0,3.66,0,28.07,28.07,0,0,1,6.51-1,2.33,2.33,0,0,0,2.18-2.65h0A2.33,2.33,0,0,0,50.47,52.28Z"/><path class="cls-6" d="M39.75,28.68a6.18,6.18,0,1,0-10.63,2.43,6.18,6.18,0,1,0,10.63-2.43Z"/><path class="cls-7" d="M32.14,32.73a6.17,6.17,0,0,1,.22-1.61,6.17,6.17,0,0,1,3.05-10,6.17,6.17,0,0,0-6.28,10,6.16,6.16,0,0,0,7.58,7.57A6.18,6.18,0,0,1,32.14,32.73Z"/><path class="cls-3" d="M39.75,28.68a6.18,6.18,0,1,0-10.63,2.43,6.18,6.18,0,1,0,10.63-2.43Z"/><path class="cls-6" d="M44,28.68a6.18,6.18,0,1,1,10.63,2.43A6.18,6.18,0,1,1,44,28.68Z"/><path class="cls-7" d="M51.61,32.73a6.17,6.17,0,0,0-.22-1.61,6.17,6.17,0,0,0-3.05-10,6.17,6.17,0,0,1,6.28,10A6.16,6.16,0,0,1,47,38.68,6.18,6.18,0,0,0,51.61,32.73Z"/><path class="cls-8" d="M56.13,27.07A6.18,6.18,0,0,0,50,20.89a5.93,5.93,0,0,0-.9.07,6.17,6.17,0,0,1,3.76,10.15,6.15,6.15,0,0,1-5.06,7.72,5.94,5.94,0,0,0,.9.07,6.16,6.16,0,0,0,6-7.79A6.15,6.15,0,0,0,56.13,27.07Z"/><path class="cls-3" d="M44,28.68a6.18,6.18,0,1,1,10.63,2.43A6.18,6.18,0,1,1,44,28.68Z"/><path class="cls-8" d="M48.68,37.27a2.21,2.21,0,0,1-1.61-2.12V31.38H36.68v.19h8v3.76a2.21,2.21,0,0,0,1.61,2.12c8.14,2.32,13.93,5.29,13.93,12.29V61h2.44V49.56C62.61,42.56,56.82,39.59,48.68,37.27Z"/><path class="cls-9" d="M23.17,51.62c0-7,5.8-10,13.93-12.29a2.21,2.21,0,0,0,1.61-2.12V33.44h8.36V31.38H36.68v3.76a2.21,2.21,0,0,1-1.61,2.12c-8.14,2.32-13.93,5.29-13.93,12.29V61h2Z"/><path class="cls-6" d="M35.23,37.14A5.3,5.3,0,0,0,34,39.47,2,2,0,0,0,36.26,42h0l-1.58,1.34a.69.69,0,0,0-.19.8,20.89,20.89,0,0,0,3.7,5.76.7.7,0,0,0,1.13-.13l2.35-4.31S35.44,40,35.23,37.14Z"/><path class="cls-6" d="M48.52,37.14a5.3,5.3,0,0,1,1.19,2.33A2,2,0,0,1,47.48,42h0l1.58,1.34a.69.69,0,0,1,.19.8,20.89,20.89,0,0,1-3.7,5.76.7.7,0,0,1-1.13-.13l-2.35-4.31S48.31,40,48.52,37.14Z"/><path class="cls-10" d="M48.33,37.14a2.21,2.21,0,0,1-1.26-2V31.38H36.68v3.76a2.21,2.21,0,0,1-1.26,2,11.7,11.7,0,0,0,6.46,7.63A11.7,11.7,0,0,0,48.33,37.14Z"/><path class="cls-11" d="M36.57,35.8a2.19,2.19,0,0,1-.22.49l-.05.08a2.2,2.2,0,0,1-.35.41l-.06,0a2.21,2.21,0,0,1-.48.32h0a11.61,11.61,0,0,0,.94,2.41l.75-.22a2.21,2.21,0,0,0,1.61-2.12V33.44h8.36V31.38H36.68v3.76a2.19,2.19,0,0,1-.08.57Z"/><path class="cls-12" d="M47.07,35.15V31.38H36.68v1.51c.23.16.46.33.71.47l2,1.18h0a4.6,4.6,0,0,1,2.43,4v6.25a11.7,11.7,0,0,0,6.46-7.63A2.21,2.21,0,0,1,47.07,35.15Z"/><path class="cls-3" d="M48.33,37.14a2.21,2.21,0,0,1-1.26-2V31.38H36.68v3.76a2.21,2.21,0,0,1-1.26,2,11.7,11.7,0,0,0,6.46,7.63A11.7,11.7,0,0,0,48.33,37.14Z"/><path class="cls-3" d="M48.68,37.27a2.21,2.21,0,0,1-1.61-2.12V31.38H36.68v3.76a2.21,2.21,0,0,1-1.61,2.12c-8.14,2.32-13.93,5.29-13.93,12.29V61H62.61V49.56C62.61,42.56,56.82,39.59,48.68,37.27Z"/><path class="cls-13" d="M51.61,21.9v-7a9.73,9.73,0,0,0-6.54-9.19h0a9.73,9.73,0,0,0-6.39,0h0a9.73,9.73,0,0,0-6.54,9.19v7A10.49,10.49,0,0,0,37.38,31l2,1.18a4.91,4.91,0,0,0,4.91,0l2-1.18A10.49,10.49,0,0,0,51.61,21.9Z"/><path class="cls-10" d="M51.53,13.74v-.12a10,10,0,0,0-.24-1.18,9.73,9.73,0,0,0-6.21-6.7h0a9.73,9.73,0,0,0-5.42-.27l.12.78c-5,3.26-4.36,13.34-3,14a9.54,9.54,0,0,1,5.09,8.44v4.09a4.93,4.93,0,0,0,1.27-.16h0a4.88,4.88,0,0,0,.55-.18l.07,0a4.87,4.87,0,0,0,.59-.29l1.6-.92,2.65-2h0a10.47,10.47,0,0,0,.78-.89l.24-.33q.25-.34.47-.7l.21-.35a10.53,10.53,0,0,0,.49-1l0-.1a10.47,10.47,0,0,0,.39-1.14c0-.12.06-.24.09-.36q.11-.44.18-.89c0-.12,0-.24.06-.37a10.48,10.48,0,0,0,.08-1.25h0v-7h0A9.46,9.46,0,0,0,51.53,13.74Z"/><path class="cls-8" d="M45.07,5.74A9.73,9.73,0,0,0,41,5.25a9.71,9.71,0,0,1,8.8,9.68v7A10.49,10.49,0,0,1,44.51,31l-2,1.18a4.89,4.89,0,0,1-1.53.56,4.9,4.9,0,0,0,3.38-.56l2-1.18a10.49,10.49,0,0,0,5.24-9.08v-7A9.73,9.73,0,0,0,45.07,5.74Z"/><path class="cls-11" d="M41.87,32.37l-2-1.18a10.49,10.49,0,0,1-5.24-9.08v-7a9.7,9.7,0,0,1,9.32-9.72,9.72,9.72,0,0,0-11.77,9.51v7A10.49,10.49,0,0,0,37.38,31l2,1.18a4.9,4.9,0,0,0,3.28.58A4.88,4.88,0,0,1,41.87,32.37Z"/><path class="cls-3" d="M51.61,21.9v-7a9.73,9.73,0,0,0-6.54-9.19h0a9.73,9.73,0,0,0-6.39,0h0a9.73,9.73,0,0,0-6.54,9.19v7A10.49,10.49,0,0,0,37.38,31l2,1.18a4.91,4.91,0,0,0,4.91,0l2-1.18A10.49,10.49,0,0,0,51.61,21.9Z"/><path class="cls-10" d="M51.3,22.62H49.21V18.18h3.25a1.64,1.64,0,0,1,1.64,1.64h0A2.8,2.8,0,0,1,51.3,22.62Z"/><path class="cls-8" d="M52.67,18.2a1.62,1.62,0,0,1,.09.53c0,1.38-.54,2.91-1.86,3.14l-.47.75h.87a2.8,2.8,0,0,0,2.8-2.8A1.63,1.63,0,0,0,52.67,18.2Z"/><path class="cls-3" d="M51.63,18.18h.83a1.64,1.64,0,0,1,1.64,1.64h0a2.8,2.8,0,0,1-2.8,2.8"/><path class="cls-11" d="M32.45,22.62h.87V18.18h-2a1.64,1.64,0,0,0-1.64,1.64h0A2.8,2.8,0,0,0,32.45,22.62Z"/><path class="cls-3" d="M32.2,18.18h-.91a1.64,1.64,0,0,0-1.64,1.64h0a2.8,2.8,0,0,0,2.8,2.8"/><circle class="cls-6" cx="38" cy="20.89" r="0.59"/><circle class="cls-6" cx="45.74" cy="20.89" r="0.59"/><path class="cls-3" d="M28.16,50v.5a15,15,0,0,1-.53,3.94l-.14.5a8.18,8.18,0,0,0,.42,5.48l.25.56"/><path class="cls-3" d="M55.59,50v.5a15,15,0,0,0,.53,3.94l.14.5a8.18,8.18,0,0,1-.42,5.48l-.25.56"/><path class="cls-6" d="M53.05,18.18h0A8.55,8.55,0,0,1,44.5,9.63v-5h0a8.55,8.55,0,0,1,8.55,8.55Z"/><path class="cls-8" d="M44.5,4.63v.18a8.56,8.56,0,0,1,6.82,8.38V18a8.59,8.59,0,0,0,1.73.18h0v-5A8.55,8.55,0,0,0,44.5,4.63Z"/><path class="cls-3" d="M53.05,18.18h0A8.55,8.55,0,0,1,44.5,9.63v-5h0a8.55,8.55,0,0,1,8.55,8.55Z"/><path class="cls-6" d="M41.62,3h.65a4.64,4.64,0,0,1,4.64,4.64v0A10.55,10.55,0,0,1,36.36,18.18H30.7a0,0,0,0,1,0,0V13.92A10.92,10.92,0,0,1,41.62,3Z"/><path class="cls-7" d="M33.34,15.27A10.92,10.92,0,0,1,44.26,4.35h.65a4.6,4.6,0,0,1,.69.07A4.61,4.61,0,0,0,42.27,3h-.65A10.92,10.92,0,0,0,30.7,13.92v4.26h2.64Z"/><path class="cls-3" d="M41.62,3h.65a4.64,4.64,0,0,1,4.64,4.64v0A10.55,10.55,0,0,1,36.36,18.18H30.7a0,0,0,0,1,0,0V13.92A10.92,10.92,0,0,1,41.62,3Z"/><path class="cls-14" d="M44.32,50.59c0-7-5.8-13-13.93-15.29a2.21,2.21,0,0,1-1.61-2.12V29.41H16.93v3.76a2.21,2.21,0,0,1-1.61,2.12C7.18,37.62,1.39,43.59,1.39,50.59V61h43Z"/><path class="cls-15" d="M8.06,38.78c-4.1,3-6.67,7.16-6.67,11.81V61H4.33V52a13.18,13.18,0,0,1,2.3-7.35A8.72,8.72,0,0,0,8.06,39.8Z"/><path class="cls-15" d="M16.93,29.41v3.76a2.2,2.2,0,0,1-1.59,2.12A23.74,23.74,0,0,0,9.18,38v1.75a.87.87,0,0,0,1.41.69,23.07,23.07,0,0,1,7.69-3.78,2.2,2.2,0,0,0,1.59-2.12V30.8h8.9V29.41Z"/><path class="cls-16" d="M44.36,61l0-7.82-1.06-7.64c-2-4.73-6.8-8.51-12.89-10.25a2.21,2.21,0,0,1-1.61-2.12v-1L16.58,37.23v.1a12.93,12.93,0,0,0,3.79,9.14h0a15.65,15.65,0,0,1,4.58,11.07V61Z"/><path class="cls-8" d="M44.32,50.59c0-7-5.8-13-13.93-15.29a2.21,2.21,0,0,1-1.61-2.12V29.41H26.84v3.76a2.21,2.21,0,0,0,1.61,2.12c8.14,2.32,13.93,8.29,13.93,15.29l0,10.41h1.94Z"/><path class="cls-15" d="M35.57,37.45a23.56,23.56,0,0,0-3.4-1.56,2.22,2.22,0,0,0,1.16.8C34.1,36.9,34.84,37.17,35.57,37.45Z"/><polygon class="cls-16" points="1.39 61 44.36 61 44.35 57.94 1.39 57.94 1.39 61"/><path class="cls-17" d="M44.36,61V57.94H41.76A13.65,13.65,0,0,1,28.62,48h0a13.65,13.65,0,0,1,.52-8.9L30.44,36,24.69,38.5l-1.85,2.31-.14,19.6,2.24-.23V61Z"/><polygon class="cls-18" points="44.35 57.94 42.41 57.94 42.43 61 44.36 61 44.35 57.94"/><rect class="cls-14" x="1.39" y="57.94" width="2.95" height="3.06"/><path class="cls-6" d="M27.43,61,24,40.94a3,3,0,1,0-2.32,0L18.27,61Z"/><polygon class="cls-19" points="24.53 43.97 24.32 42.78 21.25 43.47 21.04 44.75 24.53 43.97"/><polygon class="cls-19" points="25.11 47.38 24.91 46.19 20.63 47.15 20.41 48.43 25.11 47.38"/><polygon class="cls-19" points="25.69 50.79 25.49 49.6 20 50.82 19.78 52.1 25.69 50.79"/><polygon class="cls-19" points="26.27 54.2 26.07 53.01 19.37 54.5 19.16 55.78 26.27 54.2"/><polygon class="cls-19" points="26.85 57.6 26.65 56.42 18.75 58.18 18.53 59.46 26.85 57.6"/><polygon class="cls-19" points="27.43 61 27.23 59.83 21.96 61 27.43 61"/><path class="cls-15" d="M14.81,35.46l5.09,5.09a.9.9,0,0,0,1.37-.13l1.58-2.32-5.92-6.22v1.29a2.22,2.22,0,0,1-2.09,2.21Z"/><path class="cls-15" d="M30.93,35.46l-5.09,5.09a.9.9,0,0,1-1.37-.13L22.89,38.1l5.92-6.22v1.29a2.22,2.22,0,0,0,2.09,2.21Z"/><path class="cls-8" d="M27.25,33.64s0,0,0-.07l.34-.28-.33.35c0,1.14,1.2,3,2.36,3.14l1.32-1.32,0-.08a2.22,2.22,0,0,1-2.09-2.21V31.88L22.89,38.1l0,.07Z"/><polygon class="cls-20" points="16.93 32.18 22.85 38.1 28.77 32.18 28.77 29.41 16.93 29.41 16.93 32.18"/><polygon class="cls-21" points="22.87 38.08 28.77 32.18 28.77 29.41 22.87 29.41 22.87 38.08"/><path class="cls-21" d="M16.93,31.07a10.57,10.57,0,0,0,1.42,1l2.06,1.19a5,5,0,0,0,5,0l2.06-1.19a10.59,10.59,0,0,0,1.34-.93V29.41H16.93Z"/><polygon class="cls-8" points="22.87 29.41 22.87 30.81 27.24 30.81 27.24 33.58 22.87 37.94 22.87 38.08 28.77 32.18 28.77 29.41 22.87 29.41"/><polyline class="cls-22" points="28.77 32.18 28.77 29.41 16.93 29.41 16.93 32.18"/><path class="cls-6" d="M16.93,32.18a62.4,62.4,0,0,1,6.27,5.57h-.71a61.69,61.69,0,0,1,6.28-5.57,61.69,61.69,0,0,1-5.57,6.28.5.5,0,0,1-.7,0h0A62.4,62.4,0,0,1,16.93,32.18Z"/><path class="cls-3" d="M44.32,50.59c0-7-5.8-13-13.93-15.29a2.21,2.21,0,0,1-1.61-2.12V29.41H16.93v3.76a2.21,2.21,0,0,1-1.61,2.12C7.18,37.62,1.39,43.59,1.39,50.59V61h43Z"/><path class="cls-23" d="M33,21.5V18.27a10.11,10.11,0,0,0-6.8-9.55h0a10.11,10.11,0,0,0-6.64,0h0a10.11,10.11,0,0,0-6.79,9.55V21.5a10.9,10.9,0,0,0,5.45,9.44l2.12,1.22a5.1,5.1,0,0,0,5.1,0l2.12-1.22A10.9,10.9,0,0,0,33,21.5Z"/><path class="cls-24" d="M33,21.5V18.27a10.09,10.09,0,0,0-.35-2.6l-9-2.19-3.46.71-5.71,4,3,1.59a9.91,9.91,0,0,1,5.29,8.77v4.25a5.09,5.09,0,0,0,2.59-.68l1.66-1,2.75-2A10.9,10.9,0,0,0,33,21.5Z"/><path class="cls-8" d="M26.21,8.71a10.11,10.11,0,0,0-4.28-.51,10.09,10.09,0,0,1,9.15,10.06V21.5a10.9,10.9,0,0,1-5.45,9.44l-2.12,1.22a5.08,5.08,0,0,1-1.59.58,5.09,5.09,0,0,0,3.51-.58l2.12-1.22A10.9,10.9,0,0,0,33,21.5V18.27A10.11,10.11,0,0,0,26.21,8.71Z"/><path class="cls-25" d="M22.89,32.38l-2.12-1.22a10.9,10.9,0,0,1-5.45-9.44V18.48A10.08,10.08,0,0,1,25,8.39a10.1,10.1,0,0,0-12.23,9.88V21.5a10.9,10.9,0,0,0,5.45,9.44l2.12,1.22a5.09,5.09,0,0,0,3.41.6A5.08,5.08,0,0,1,22.89,32.38Z"/><path class="cls-3" d="M33,21.5V18.27a10.11,10.11,0,0,0-6.8-9.55h0a10.11,10.11,0,0,0-6.64,0h0a10.11,10.11,0,0,0-6.8,9.55V21.5a10.9,10.9,0,0,0,5.45,9.44l2.12,1.22a5.1,5.1,0,0,0,5.1,0l2.12-1.22A10.9,10.9,0,0,0,33,21.5Z"/><path class="cls-23" d="M32.64,22.25h-.9V17.64h2.1a1.7,1.7,0,0,1,1.7,1.7h0A2.91,2.91,0,0,1,32.64,22.25Z"/><path class="cls-8" d="M34.06,17.66a1.69,1.69,0,0,1,.1.55,2.9,2.9,0,0,1-2.42,2.86v1.18h.9a2.91,2.91,0,0,0,2.91-2.91A1.7,1.7,0,0,0,34.06,17.66Z"/><path class="cls-3" d="M31.74,17.64h2.1a1.7,1.7,0,0,1,1.7,1.7h0a2.91,2.91,0,0,1-2.91,2.91"/><path class="cls-26" d="M25.12,4.9h2.43A7.07,7.07,0,0,1,34.63,12V18a0,0,0,0,1,0,0H31.88a6.76,6.76,0,0,1-6.76-6.76V4.9A0,0,0,0,1,25.12,4.9Z"/><path class="cls-27" d="M27.09,7.12h-2v4.14A6.76,6.76,0,0,0,31.88,18h2.28V14.2A7.07,7.07,0,0,0,27.09,7.12Z"/><path class="cls-8" d="M27.66,4.91A7.07,7.07,0,0,1,33,11.75V17.8h-2.8a6.75,6.75,0,0,0,1.73.23h2.75V12A7.07,7.07,0,0,0,27.66,4.91Z"/><path class="cls-3" d="M25.12,4.9h2.43A7.07,7.07,0,0,1,34.63,12V18a0,0,0,0,1,0,0H31.88a6.76,6.76,0,0,1-6.76-6.76V4.9A0,0,0,0,1,25.12,4.9Z"/><path class="cls-27" d="M19.29,17.64H11.15v-7.2A7.43,7.43,0,0,1,18.58,3H24a5,5,0,0,1,5,5h0A9.66,9.66,0,0,1,19.29,17.64Z"/><path class="cls-26" d="M13.72,12a6.72,6.72,0,0,1,6.72-6.72h6.11a4.94,4.94,0,0,1,1.79.35A5,5,0,0,0,24,3h-5.4a7.43,7.43,0,0,0-7.43,7.43v7.2h2.57Z"/><path class="cls-3" d="M27.18,13.55a9.65,9.65,0,0,1-7.89,4.09H11.15V11.47A8.46,8.46,0,0,1,19.61,3H24a5,5,0,0,1,5,5h0"/><path class="cls-25" d="M13.05,22.25H14V17.64h-2.1a1.7,1.7,0,0,0-1.7,1.7h0A2.91,2.91,0,0,0,13.05,22.25Z"/><path class="cls-3" d="M14,17.64h-2.1a1.7,1.7,0,0,0-1.7,1.7h0a2.91,2.91,0,0,0,2.91,2.91"/><path class="cls-6" d="M12.82,17.8l.84,2.42a.35.35,0,0,0,.65,0l.84-2.42Z"/><path class="cls-6" d="M30.62,17.8l.84,2.42a.35.35,0,0,0,.65,0L33,17.8Z"/><circle class="cls-6" cx="18.87" cy="20.45" r="0.61"/><circle class="cls-6" cx="26.91" cy="20.45" r="0.61"/><line class="cls-3" x1="7.58" y1="52.11" x2="7.58" y2="61"/><line class="cls-3" x1="38.16" y1="52.11" x2="38.16" y2="61"/></svg>