<svg id="Layer_1" data-name="Layer 1" xmlns="http://www.w3.org/2000/svg" viewBox="0 0 64 64"><defs><style>.cls-1{fill:#d9ebf4;}.cls-2{fill:#c6e2f4;}.cls-13,.cls-15,.cls-18,.cls-3{fill:none;}.cls-15,.cls-18,.cls-3,.cls-4{stroke:#041256;stroke-linecap:round;stroke-linejoin:round;}.cls-3{stroke-width:2px;}.cls-4{fill:#041256;}.cls-5{fill:#0f236d;}.cls-6{fill:#28438e;}.cls-7{fill:#b7cde2;}.cls-8{fill:#cedff4;}.cls-9{fill:#96b3cc;}.cls-10{fill:#3bb790;}.cls-11{fill:#50d190;}.cls-12{fill:#2f8fa5;}.cls-13{stroke:#226b93;stroke-miterlimit:10;stroke-width:0.5px;}.cls-14{fill:#70e5a8;}.cls-16{fill:#fff;}.cls-17{fill:#3c5ca5;}.cls-18{stroke-width:0.75px;}.cls-19{fill:#cc487e;}.cls-20{fill:#b73d74;}.cls-21{fill:#a3316a;}.cls-22{fill:#61e29f;}.cls-23{fill:#78efad;}.cls-24{fill:#e29e54;}.cls-25{fill:#ce863e;}.cls-26{fill:#f2b770;}.cls-27{fill:#ba7231;}</style></defs><title>statistic, analytics, chart, arrow</title><path class="cls-1" d="M46.6,11.32H43.94a.83.83,0,0,1,0-1.66h1.33a.5.5,0,0,0,.5-.5.5.5,0,0,1,.5-.5h2.66a.83.83,0,1,1,0,1.66H47.6a.5.5,0,0,0-.5.5A.5.5,0,0,1,46.6,11.32Z"/><path class="cls-1" d="M48.75,12.63h1.54a.29.29,0,0,1,.29.29.29.29,0,0,0,.29.29h.77a.48.48,0,0,1,0,1H50.1a.29.29,0,0,1-.29-.29.29.29,0,0,0-.29-.29h-.77a.48.48,0,1,1,0-1Z"/><path class="cls-1" d="M43.6,4.21h1.54a.29.29,0,0,1,.29.29.29.29,0,0,0,.29.29h.77a.48.48,0,0,1,0,1H44.94a.29.29,0,0,1-.29-.29.29.29,0,0,0-.29-.29H43.6a.48.48,0,1,1,0-1Z"/><circle class="cls-1" cx="56.99" cy="14.5" r="0.69"/><circle class="cls-1" cx="46.43" cy="14.66" r="0.67"/><circle class="cls-1" cx="43.11" cy="16.02" r="1.08"/><circle class="cls-1" cx="42.47" cy="7.7" r="0.35"/><circle class="cls-1" cx="53.39" cy="16.02" r="0.42"/><circle class="cls-1" cx="50.19" cy="17.35" r="1.12"/><circle class="cls-1" cx="54.53" cy="13.01" r="0.39"/><path class="cls-1" d="M13.13,14.21h0a.5.5,0,0,0-.5-.5H10a.83.83,0,0,0-.83.83h0a.83.83,0,0,0,.83.83H11.3a.5.5,0,0,1,.5.5h0a.5.5,0,0,0,.5.5H15a.83.83,0,0,0,.83-.83h0a.83.83,0,0,0-.83-.83H13.63A.5.5,0,0,1,13.13,14.21Z"/><path class="cls-1" d="M8.3,18h0a.29.29,0,0,1,.29-.29h1.55a.48.48,0,0,1,.48.48h0a.48.48,0,0,1-.48.48H9.36a.29.29,0,0,0-.29.29h0a.29.29,0,0,1-.29.29H7.23a.48.48,0,0,1-.48-.48h0a.48.48,0,0,1,.48-.48H8A.29.29,0,0,0,8.3,18Z"/><circle class="cls-1" cx="11.59" cy="25.89" r="0.7"/><circle class="cls-1" cx="12.47" cy="19.73" r="0.67"/><circle class="cls-1" cx="15.8" cy="21.11" r="1.08"/><circle class="cls-1" cx="16.45" cy="12.74" r="0.35"/><circle class="cls-1" cx="5.47" cy="21.11" r="0.43"/><circle class="cls-1" cx="8.69" cy="22.44" r="1.12"/><circle class="cls-1" cx="4.33" cy="18.08" r="0.39"/><path class="cls-2" d="M61,59.79V32.51a.89.89,0,0,0-.89-.89h-.93a.89.89,0,0,0-.89.89v2.27a.89.89,0,0,1-.89.89h-3a.89.89,0,0,0-.89.89V46.94a.89.89,0,0,1-.89.89H50.74a.89.89,0,0,0-.89.89v6.54a.89.89,0,0,1-.89.89h-.9a.89.89,0,0,1-.89-.89V54.12a.89.89,0,0,0-.89-.89h-.81a.89.89,0,0,1-.89-.89V50.81a.89.89,0,0,0-.89-.89H38.9A.89.89,0,0,1,38,49v-.91a.89.89,0,0,0-.89-.89H21.71a.89.89,0,0,0-.63.26l-4.14,4.14a.89.89,0,0,1-.63.26H15.07a.89.89,0,0,0-.89.89v3a.89.89,0,0,1-.89.89h-.51a.89.89,0,0,1-.89-.89v-.52a.89.89,0,0,0-.89-.89h-.65a.89.89,0,0,1-.89-.89.89.89,0,0,0-.89-.89H3.94a.89.89,0,0,0-.89.89v6.31Z"/><line class="cls-3" x1="61" y1="59.79" x2="3" y2="59.79"/><path class="cls-4" d="M11.44,20.69H52.56a2.5,2.5,0,0,1,2.5,2.5V54.78a0,0,0,0,1,0,0H8.94a0,0,0,0,1,0,0V23.19A2.5,2.5,0,0,1,11.44,20.69Z"/><path class="cls-5" d="M14.38,20.69H11.44a2.5,2.5,0,0,0-2.5,2.5V54.78h2.94V23.19A2.5,2.5,0,0,1,14.38,20.69Z"/><path class="cls-5" d="M52.56,20.69H11.44a2.5,2.5,0,0,0-2.5,2.5v2a2.51,2.51,0,0,1,2.55-2.5H52.62a2.49,2.49,0,0,1,2.44,2.5v-2A2.5,2.5,0,0,0,52.56,20.69Z"/><path class="cls-6" d="M52.56,20.69H11.44a2.5,2.5,0,0,0-2.5,2.5v1.33a2.5,2.5,0,0,1,2.5-2.5H52.56a2.5,2.5,0,0,1,2.5,2.5V23.19A2.5,2.5,0,0,0,52.56,20.69Z"/><path class="cls-6" d="M11.44,22.66h.5a2.5,2.5,0,0,1,2.44-2H11.44a2.5,2.5,0,0,0-2.5,2.5v2A2.5,2.5,0,0,1,11.44,22.66Z"/><path class="cls-3" d="M11.44,20.69H52.56a2.5,2.5,0,0,1,2.5,2.5V54.78a0,0,0,0,1,0,0H8.94a0,0,0,0,1,0,0V23.19A2.5,2.5,0,0,1,11.44,20.69Z"/><path class="cls-7" d="M51.68,54.67H12.32V25.12a.58.58,0,0,1,.58-.58H51.1a.58.58,0,0,1,.58.58Z"/><path class="cls-8" d="M49.84,54.37H14.15V26.81a.52.52,0,0,1,.52-.52H49.32a.52.52,0,0,1,.52.52Z"/><path class="cls-9" d="M51.68,25.12a.58.58,0,0,0-.58-.58H48.56a1,1,0,0,1-.27.55l-8.72,8.72a2.26,2.26,0,0,1-2.77.33A8,8,0,0,0,27,35.32l-6.12,6.12a4.25,4.25,0,0,0-.32,5.79,4.09,4.09,0,0,0,5.94.16l5.77-5.77a.6.6,0,0,1,.81,0,8,8,0,0,0,10.8-.49l7.83-7.83Z"/><path class="cls-9" d="M52.18,54.37h-1V25.12A.08.08,0,0,0,51.1,25H12.9a.08.08,0,0,0-.08.08V54.37h-1V25.12A1.08,1.08,0,0,1,12.9,24H51.1a1.08,1.08,0,0,1,1.08,1.08Z"/><polygon class="cls-3" points="60.86 55.49 60.86 41.92 58.02 40.28 55.18 41.92 55.18 55.49 58.02 57.13 60.86 55.49"/><polygon class="cls-10" points="60.86 55.49 60.86 41.92 58.02 40.28 55.18 41.92 55.18 55.49 58.02 57.13 60.86 55.49"/><polygon class="cls-11" points="56.31 56.06 56.31 42.49 59.08 40.89 58.02 40.28 55.18 41.92 55.18 55.49 58.02 57.13 58.09 57.09 56.31 56.06"/><polygon class="cls-12" points="60.86 55.49 60.86 41.92 58.02 40.28 58.02 57.13 60.86 55.49"/><line class="cls-13" x1="58.02" y1="40.63" x2="58.02" y2="57.13"/><polygon class="cls-11" points="58.02 43.53 60.84 41.91 58.02 40.28 55.21 41.91 58.02 43.53"/><polygon class="cls-14" points="56.31 42.54 56.31 42.49 59.08 40.89 58.02 40.28 55.21 41.91 56.31 42.54"/><polyline class="cls-13" points="55.21 41.91 58.02 43.53 60.84 41.91"/><polygon class="cls-15" points="60.86 55.49 60.86 41.92 58.02 40.28 55.18 41.92 55.18 55.49 58.02 57.13 60.86 55.49"/><polygon class="cls-3" points="54.69 55.51 54.69 46.94 51.85 45.3 49.01 46.94 49.01 55.51 51.85 57.15 54.69 55.51"/><polygon class="cls-10" points="54.69 55.51 54.69 46.94 51.85 45.3 49.01 46.94 49.01 55.51 51.85 57.15 54.69 55.51"/><polygon class="cls-11" points="50.13 56.08 50.13 47.51 52.91 45.91 51.85 45.3 49.01 46.94 49.01 55.51 51.85 57.15 51.92 57.11 50.13 56.08"/><polygon class="cls-12" points="54.69 55.51 54.69 46.94 51.85 45.3 51.85 57.15 54.69 55.51"/><line class="cls-13" x1="51.85" y1="45.64" x2="51.85" y2="57.15"/><polygon class="cls-11" points="51.85 48.55 54.66 46.92 51.85 45.3 49.03 46.92 51.85 48.55"/><polygon class="cls-14" points="50.13 47.56 50.13 47.51 52.91 45.91 51.85 45.3 49.03 46.92 50.13 47.56"/><polyline class="cls-13" points="49.03 46.92 51.85 48.55 54.66 46.92"/><polygon class="cls-15" points="54.69 55.51 54.69 46.94 51.85 45.3 49.01 46.94 49.01 55.51 51.85 57.15 54.69 55.51"/><polygon class="cls-3" points="48.47 55.49 48.47 51.93 45.62 50.29 42.78 51.93 42.78 55.49 45.62 57.13 48.47 55.49"/><polygon class="cls-10" points="48.47 55.49 48.47 51.93 45.62 50.29 42.78 51.93 42.78 55.49 45.62 57.13 48.47 55.49"/><polygon class="cls-11" points="43.91 56.06 43.91 52.5 46.68 50.9 45.62 50.29 42.78 51.93 42.78 55.49 45.62 57.13 45.69 57.09 43.91 56.06"/><polygon class="cls-12" points="48.47 55.49 48.47 51.93 45.62 50.29 45.62 57.13 48.47 55.49"/><line class="cls-13" x1="45.62" y1="50.64" x2="45.62" y2="57.13"/><polygon class="cls-11" points="45.62 53.54 48.44 51.91 45.62 50.29 42.81 51.91 45.62 53.54"/><polygon class="cls-14" points="43.91 52.55 43.91 52.5 46.68 50.9 45.62 50.29 42.81 51.91 43.91 52.55"/><polyline class="cls-13" points="42.81 51.91 45.62 53.54 48.44 51.91"/><polygon class="cls-15" points="48.47 55.49 48.47 51.93 45.62 50.29 42.78 51.93 42.78 55.49 45.62 57.13 48.47 55.49"/><path class="cls-4" d="M4.09,54.78H59.91a.95.95,0,0,1,.95.95v1.22A2.84,2.84,0,0,1,58,59.79H6a2.84,2.84,0,0,1-2.84-2.84V55.73a.95.95,0,0,1,.95-.95Z"/><path class="cls-5" d="M5.63,58.93V57.07a.31.31,0,0,1,.31-.31H60.86v-1a1,1,0,0,0-.95-.95H4.09a1,1,0,0,0-.95.95v1.22a2.83,2.83,0,0,0,2.63,2.82A2.81,2.81,0,0,1,5.63,58.93Z"/><path class="cls-16" d="M5.63,59.74l.14,0a2.81,2.81,0,0,1-.14-.84Z"/><path class="cls-6" d="M59.91,54.78H4.09a1,1,0,0,0-.95.95v1.22c0,.07,0,.14,0,.2a.94.94,0,0,1,.93-.85H59.91a.93.93,0,0,1,.79.45h.16v-1A1,1,0,0,0,59.91,54.78Z"/><path class="cls-17" d="M38.47,54.56a.5.5,0,0,0-.45-.28H26a.5.5,0,0,0-.39.81l.8,1a1.93,1.93,0,0,0,1.51.73H36.1a1.93,1.93,0,0,0,1.51-.73l.8-1A.5.5,0,0,0,38.47,54.56Z"/><path class="cls-3" d="M4.09,54.78H59.91a.95.95,0,0,1,.95.95v1.22A2.84,2.84,0,0,1,58,59.79H6a2.84,2.84,0,0,1-2.84-2.84V55.73a.95.95,0,0,1,.95-.95Z"/><circle class="cls-18" cx="32" cy="22.87" r="0.01"/><circle class="cls-1" cx="30.78" cy="15.89" r="0.84"/><circle class="cls-1" cx="39.57" cy="10.46" r="0.84"/><path class="cls-1" d="M33.52,15.42a1.62,1.62,0,0,1-.34,0,.44.44,0,1,0,0,.87,2.49,2.49,0,0,0,.53-.06.44.44,0,1,0-.19-.85Z"/><path class="cls-1" d="M37,11.34a.44.44,0,0,0,.48-.09l.48-.48a.44.44,0,0,0,0-.62l-.48-.48a.44.44,0,0,0-.75.31v.09a2.43,2.43,0,0,0-2,2.38v1.46a1.55,1.55,0,0,1,0,.34.44.44,0,0,0,.33.52h.1a.44.44,0,0,0,.43-.34,2.46,2.46,0,0,0,.06-.53V12.45A1.55,1.55,0,0,1,36.71,11,.43.43,0,0,0,37,11.34Z"/><path class="cls-1" d="M39.57,13.12a.44.44,0,0,0-.62,0l-.67.67-.67-.67a.44.44,0,0,0-.62.62l.67.67-.67.67a.44.44,0,1,0,.62.62l.67-.67.67.67a.44.44,0,0,0,.62-.62l-.67-.67.67-.67A.44.44,0,0,0,39.57,13.12Z"/><path class="cls-1" d="M33.05,13.37a.44.44,0,0,0,.31-.75l-.67-.67.67-.67a.44.44,0,1,0-.62-.62l-.67.67-.67-.67a.44.44,0,1,0-.62.62l.67.67-.67.67a.44.44,0,1,0,.62.62l.67-.67.67.67A.44.44,0,0,0,33.05,13.37Z"/><circle class="cls-19" cx="16.69" cy="22.68" r="7.75"/><circle class="cls-20" cx="16.69" cy="22.68" r="6.2"/><path class="cls-20" d="M16.69,30.43a7.75,7.75,0,0,0,6.43-12.08H16.69Z"/><path class="cls-21" d="M21.12,18.35H16.69V28.88a6.19,6.19,0,0,0,4.43-10.53Z"/><circle class="cls-3" cx="16.69" cy="22.68" r="7.75"/><path class="cls-22" d="M16.69,13.32v8.76a.6.6,0,0,0,.6.6H26A1.52,1.52,0,0,0,27.56,21,11,11,0,0,0,18.4,11.8,1.52,1.52,0,0,0,16.69,13.32Z"/><path class="cls-23" d="M23.85,17.41l1.37-.79a10.46,10.46,0,0,0-6.9-4.29,1.43,1.43,0,0,0-1.6,1.14,1.34,1.34,0,0,1,.48,0A10.45,10.45,0,0,1,23.85,17.41Z"/><path class="cls-23" d="M24.38,18.2a10.36,10.36,0,0,1,1.53,4,1.34,1.34,0,0,1,0,.48A1.43,1.43,0,0,0,27,21a10.36,10.36,0,0,0-1.31-3.62Z"/><path class="cls-11" d="M16.69,14.93v7.15a.6.6,0,0,0,.6.6h7.15A7.75,7.75,0,0,0,16.69,14.93Z"/><path class="cls-3" d="M16.69,13.32v9.36H26a1.52,1.52,0,0,0,1.52-1.73,11,11,0,0,0-9.14-9.14A1.52,1.52,0,0,0,16.69,13.32Z"/><path class="cls-24" d="M58.89,16l-10,2.44a1.2,1.2,0,0,0-.57,2h0a1,1,0,0,1,0,1.43l-8.72,8.72a2.22,2.22,0,0,1-2.72.36A8,8,0,0,0,27,32.15l-6.12,6.12a4.25,4.25,0,0,0-.32,5.79,4.09,4.09,0,0,0,5.94.16l5-5A2,2,0,0,1,33.89,39a8,8,0,0,0,10-1.1L54.08,27.7a1,1,0,0,1,1.43,0h0a1.2,1.2,0,0,0,2-.57l2.44-10A.9.9,0,0,0,58.89,16Z"/><path class="cls-25" d="M52.56,20.69H48.43a1,1,0,0,1-.14,1.23l-8.72,8.72a2.22,2.22,0,0,1-2.72.36A8,8,0,0,0,27,32.15l-6.12,6.12a4.25,4.25,0,0,0-.32,5.79,4.09,4.09,0,0,0,5.94.16l5-5A2,2,0,0,1,33.89,39a8,8,0,0,0,10-1.1L54.08,27.7a1,1,0,0,1,1-.24V23.19A2.5,2.5,0,0,0,52.56,20.69Z"/><path class="cls-26" d="M58.89,16l-10,2.44a1.2,1.2,0,0,0-.57,2,1,1,0,0,1,0,1.43l-8.72,8.72A2.26,2.26,0,0,1,36.8,31,8,8,0,0,0,27,32.15l-6.12,6.12a4.29,4.29,0,0,0-.66,5.32,4.49,4.49,0,0,1,1.3-2.85l6.12-6.12a8,8,0,0,1,9.84-1.18,2.26,2.26,0,0,0,2.77-.33l7.18-7.18A3.05,3.05,0,0,1,49.55,25H51.1a.08.08,0,0,1,.08.08V30.6l1-1V25.12A1.08,1.08,0,0,0,51.1,24H49.16A1,1,0,0,0,48.93,23a1.2,1.2,0,0,1,.57-2l10-2.44h.11L60,17.11A.9.9,0,0,0,58.89,16Z"/><path class="cls-27" d="M52.56,19.69H47.95a1.18,1.18,0,0,0,.34.8,1,1,0,0,1,.15,1.2h4.12a1.5,1.5,0,0,1,1.5,1.5v4.53h0a1,1,0,0,1,1.43,0h0a1.19,1.19,0,0,0,.55.32V23.19A3.5,3.5,0,0,0,52.56,19.69Z"/><path class="cls-3" d="M58.89,16l-10,2.44a1.2,1.2,0,0,0-.57,2h0a1,1,0,0,1,0,1.43l-8.72,8.72a2.22,2.22,0,0,1-2.72.36A8,8,0,0,0,27,32.15l-6.12,6.12a4.25,4.25,0,0,0-.32,5.79,4.09,4.09,0,0,0,5.94.16l5-5A2,2,0,0,1,33.89,39a8,8,0,0,0,10-1.1L54.08,27.7a1,1,0,0,1,1.43,0h0a1.2,1.2,0,0,0,2-.57l2.44-10A.9.9,0,0,0,58.89,16Z"/><line class="cls-3" x1="40.84" y1="29.34" x2="37.69" y2="32.49"/><line class="cls-3" x1="32.16" y1="37.34" x2="33.69" y2="38.88"/><rect class="cls-16" x="32.15" y="44.64" width="11.08" height="0.91" rx="0.35" ry="0.35"/><rect class="cls-16" x="32.15" y="47.1" width="11.08" height="0.91" rx="0.35" ry="0.35"/><rect class="cls-16" x="32.15" y="49.57" width="3.81" height="0.91" rx="0.35" ry="0.35"/><circle class="cls-16" cx="17.49" cy="48.88" r="1.69"/></svg>